solid OpenSCAD_Model
  facet normal -0 0 1
    outer loop
      vertex 0 17.41 1
      vertex 22.15 0 1
      vertex 22.15 17.41 1
    endloop
  endfacet
  facet normal 0 0 1
    outer loop
      vertex 22.15 0 1
      vertex 0 17.41 1
      vertex 0 0 1
    endloop
  endfacet
  facet normal 0 0 -1
    outer loop
      vertex 0 0 0
      vertex 22.15 17.41 0
      vertex 22.15 0 0
    endloop
  endfacet
  facet normal -0 0 -1
    outer loop
      vertex 22.15 17.41 0
      vertex 0 0 0
      vertex 0 17.41 0
    endloop
  endfacet
  facet normal 0 -1 0
    outer loop
      vertex 0 0 0
      vertex 22.15 0 1
      vertex 0 0 1
    endloop
  endfacet
  facet normal 0 -1 -0
    outer loop
      vertex 22.15 0 1
      vertex 0 0 0
      vertex 22.15 0 0
    endloop
  endfacet
  facet normal 1 -0 0
    outer loop
      vertex 22.15 0 1
      vertex 22.15 17.41 0
      vertex 22.15 17.41 1
    endloop
  endfacet
  facet normal 1 0 0
    outer loop
      vertex 22.15 17.41 0
      vertex 22.15 0 1
      vertex 22.15 0 0
    endloop
  endfacet
  facet normal 0 1 -0
    outer loop
      vertex 22.15 17.41 0
      vertex 0 17.41 1
      vertex 22.15 17.41 1
    endloop
  endfacet
  facet normal 0 1 0
    outer loop
      vertex 0 17.41 1
      vertex 22.15 17.41 0
      vertex 0 17.41 0
    endloop
  endfacet
  facet normal -1 0 0
    outer loop
      vertex 0 0 0
      vertex 0 17.41 1
      vertex 0 17.41 0
    endloop
  endfacet
  facet normal -1 -0 0
    outer loop
      vertex 0 17.41 1
      vertex 0 0 0
      vertex 0 0 1
    endloop
  endfacet
endsolid OpenSCAD_Model
