solid OpenSCAD_Model
  facet normal 0.433808 -0.901005 0
    outer loop
      vertex 107.44 0 1.8
      vertex 109.004 0.753021 3
      vertex 107.44 0 3
    endloop
  endfacet
  facet normal 0.433808 -0.901005 0
    outer loop
      vertex 109.004 0.753021 3
      vertex 107.44 0 1.8
      vertex 109.004 0.753021 1.8
    endloop
  endfacet
  facet normal 0.943963 -0.330052 0
    outer loop
      vertex 109.004 0.753021 3
      vertex 109.44 2 1.8
      vertex 109.44 2 3
    endloop
  endfacet
  facet normal 0.943963 -0.330052 0
    outer loop
      vertex 109.44 2 1.8
      vertex 109.004 0.753021 3
      vertex 109.004 0.753021 1.8
    endloop
  endfacet
  facet normal -0.900968 -0.433885 0
    outer loop
      vertex 0.753021 0.43634 1.8
      vertex 0 2 3
      vertex 0 2 1.8
    endloop
  endfacet
  facet normal -0.900968 -0.433885 0
    outer loop
      vertex 0 2 3
      vertex 0.753021 0.43634 1.8
      vertex 0.753021 0.43634 3
    endloop
  endfacet
  facet normal -0.433875 0.900973 0
    outer loop
      vertex 2 88 1.8
      vertex 0.43634 87.247 3
      vertex 2 88 3
    endloop
  endfacet
  facet normal -0.433875 0.900973 0
    outer loop
      vertex 0.43634 87.247 3
      vertex 2 88 1.8
      vertex 0.43634 87.247 1.8
    endloop
  endfacet
  facet normal 0 0 -1
    outer loop
      vertex 107.94 86 1.8
      vertex 109.44 86 1.8
      vertex 109.44 47.15 1.8
    endloop
  endfacet
  facet normal 0 0 -1
    outer loop
      vertex 107.94 86 1.8
      vertex 109.44 47.15 1.8
      vertex 107.94 47.15 1.8
    endloop
  endfacet
  facet normal 0 0 -1
    outer loop
      vertex 109.44 86 1.8
      vertex 107.94 86 1.8
      vertex 108.687 87.5637 1.8
    endloop
  endfacet
  facet normal 0 0 -1
    outer loop
      vertex 107.44 86.5 1.8
      vertex 108.687 87.5637 1.8
      vertex 107.94 86 1.8
    endloop
  endfacet
  facet normal 0 0 -1
    outer loop
      vertex 107.44 86.5 1.8
      vertex 107.44 88 1.8
      vertex 108.687 87.5637 1.8
    endloop
  endfacet
  facet normal 0 0 -1
    outer loop
      vertex 76.11 86.5 1.8
      vertex 107.44 88 1.8
      vertex 107.44 86.5 1.8
    endloop
  endfacet
  facet normal -0 0 -1
    outer loop
      vertex 107.44 88 1.8
      vertex 76.11 86.5 1.8
      vertex 76.11 88 1.8
    endloop
  endfacet
  facet normal 0 0 -1
    outer loop
      vertex 107.44 1.5 1.8
      vertex 109.004 0.753021 1.8
      vertex 107.44 0 1.8
    endloop
  endfacet
  facet normal 0 0 -1
    outer loop
      vertex 109.004 0.753021 1.8
      vertex 107.44 1.5 1.8
      vertex 107.94 2 1.8
    endloop
  endfacet
  facet normal 0 0 -1
    outer loop
      vertex 76.11 0 1.8
      vertex 107.44 1.5 1.8
      vertex 107.44 0 1.8
    endloop
  endfacet
  facet normal -0 0 -1
    outer loop
      vertex 107.44 1.5 1.8
      vertex 76.11 0 1.8
      vertex 76.11 1.5 1.8
    endloop
  endfacet
  facet normal 0 0 -1
    outer loop
      vertex 107.94 2 1.8
      vertex 109.44 2 1.8
      vertex 109.004 0.753021 1.8
    endloop
  endfacet
  facet normal 0 0 -1
    outer loop
      vertex 109.44 2 1.8
      vertex 107.94 2 1.8
      vertex 109.44 40.85 1.8
    endloop
  endfacet
  facet normal -0 0 -1
    outer loop
      vertex 109.44 40.85 1.8
      vertex 107.94 2 1.8
      vertex 107.94 40.85 1.8
    endloop
  endfacet
  facet normal 0 0 -1
    outer loop
      vertex 2 0 1.8
      vertex 33.33 1.5 1.8
      vertex 33.33 0 1.8
    endloop
  endfacet
  facet normal 0 0 -1
    outer loop
      vertex 2 0 1.8
      vertex 2 1.5 1.8
      vertex 33.33 1.5 1.8
    endloop
  endfacet
  facet normal 0 0 -1
    outer loop
      vertex 0.753021 0.43634 1.8
      vertex 2 1.5 1.8
      vertex 2 0 1.8
    endloop
  endfacet
  facet normal -0 0 -1
    outer loop
      vertex 2 1.5 1.8
      vertex 0.753021 0.43634 1.8
      vertex 1.5 2 1.8
    endloop
  endfacet
  facet normal 0 0 -1
    outer loop
      vertex 0 2 1.8
      vertex 1.5 2 1.8
      vertex 0.753021 0.43634 1.8
    endloop
  endfacet
  facet normal 0 0 -1
    outer loop
      vertex 1.5 2 1.8
      vertex 0 2 1.8
      vertex 1.5 40.85 1.8
    endloop
  endfacet
  facet normal -0 0 -1
    outer loop
      vertex 1.5 40.85 1.8
      vertex 0 2 1.8
      vertex 0 40.85 1.8
    endloop
  endfacet
  facet normal 0 0 -1
    outer loop
      vertex 0 86 1.8
      vertex 1.5 86 1.8
      vertex 1.5 47.15 1.8
    endloop
  endfacet
  facet normal 0 0 -1
    outer loop
      vertex 0 86 1.8
      vertex 1.5 47.15 1.8
      vertex 0 47.15 1.8
    endloop
  endfacet
  facet normal 0 0 -1
    outer loop
      vertex 1.5 86 1.8
      vertex 0 86 1.8
      vertex 0.43634 87.247 1.8
    endloop
  endfacet
  facet normal 0 0 -1
    outer loop
      vertex 2 86.5 1.8
      vertex 33.33 88 1.8
      vertex 33.33 86.5 1.8
    endloop
  endfacet
  facet normal 0 0 -1
    outer loop
      vertex 2 86.5 1.8
      vertex 2 88 1.8
      vertex 33.33 88 1.8
    endloop
  endfacet
  facet normal 0 0 -1
    outer loop
      vertex 0.43634 87.247 1.8
      vertex 2 86.5 1.8
      vertex 1.5 86 1.8
    endloop
  endfacet
  facet normal 0 0 -1
    outer loop
      vertex 2 86.5 1.8
      vertex 0.43634 87.247 1.8
      vertex 2 88 1.8
    endloop
  endfacet
  facet normal 0 0 -1
    outer loop
      vertex 39.63 0 1.8
      vertex 69.81 1.5 1.8
      vertex 69.81 0 1.8
    endloop
  endfacet
  facet normal -0 0 -1
    outer loop
      vertex 69.81 1.5 1.8
      vertex 39.63 0 1.8
      vertex 39.63 1.5 1.8
    endloop
  endfacet
  facet normal 0 0 -1
    outer loop
      vertex 39.63 86.5 1.8
      vertex 69.81 88 1.8
      vertex 69.81 86.5 1.8
    endloop
  endfacet
  facet normal -0 0 -1
    outer loop
      vertex 69.81 88 1.8
      vertex 39.63 86.5 1.8
      vertex 39.63 88 1.8
    endloop
  endfacet
  facet normal 0.330249 0.943894 -0
    outer loop
      vertex 108.687 87.5637 1.8
      vertex 107.44 88 3
      vertex 108.687 87.5637 3
    endloop
  endfacet
  facet normal 0.330249 0.943894 0
    outer loop
      vertex 107.44 88 3
      vertex 108.687 87.5637 1.8
      vertex 107.44 88 1.8
    endloop
  endfacet
  facet normal 0 0 1
    outer loop
      vertex 69.81 88 3
      vertex 39.63 88 3
      vertex 69.81 85.4 3
    endloop
  endfacet
  facet normal 0 0 1
    outer loop
      vertex 103.74 22.7 3
      vertex 69.81 2.6 3
      vertex 76.11 2.6 3
    endloop
  endfacet
  facet normal 0 0 1
    outer loop
      vertex 69.81 2.6 3
      vertex 39.63 2.6 3
      vertex 69.81 0 3
    endloop
  endfacet
  facet normal -0 0 1
    outer loop
      vertex 7.7 22.7 3
      vertex 69.81 2.6 3
      vertex 103.74 22.7 3
    endloop
  endfacet
  facet normal 0 0 1
    outer loop
      vertex 69.81 2.6 3
      vertex 7.7 22.7 3
      vertex 39.63 2.6 3
    endloop
  endfacet
  facet normal 0 0 1
    outer loop
      vertex 39.63 2.6 3
      vertex 7.7 22.7 3
      vertex 33.33 2.6 3
    endloop
  endfacet
  facet normal 0 0 1
    outer loop
      vertex 2 0 3
      vertex 33.33 2.6 3
      vertex 7.7 22.7 3
    endloop
  endfacet
  facet normal -0 0 1
    outer loop
      vertex 2.6 40.85 3
      vertex 7.7 22.7 3
      vertex 2.6 47.15 3
    endloop
  endfacet
  facet normal 0 0 1
    outer loop
      vertex 33.33 2.6 3
      vertex 2 0 3
      vertex 33.33 0 3
    endloop
  endfacet
  facet normal -0 0 1
    outer loop
      vertex 0 40.85 3
      vertex 7.7 22.7 3
      vertex 2.6 40.85 3
    endloop
  endfacet
  facet normal 0 0 1
    outer loop
      vertex 7.7 22.7 3
      vertex 0 2 3
      vertex 2 0 3
    endloop
  endfacet
  facet normal 0 0 1
    outer loop
      vertex 7.7 22.7 3
      vertex 0 40.85 3
      vertex 0 2 3
    endloop
  endfacet
  facet normal 0 0 1
    outer loop
      vertex 2 0 3
      vertex 0 2 3
      vertex 0.753021 0.43634 3
    endloop
  endfacet
  facet normal 0 0 1
    outer loop
      vertex 107.44 88 3
      vertex 109.44 86 3
      vertex 108.687 87.5637 3
    endloop
  endfacet
  facet normal 0 0 1
    outer loop
      vertex 109.44 86 3
      vertex 107.44 88 3
      vertex 103.74 83.3 3
    endloop
  endfacet
  facet normal 0 0 1
    outer loop
      vertex 109.44 86 3
      vertex 103.74 83.3 3
      vertex 109.44 47.15 3
    endloop
  endfacet
  facet normal 0 0 1
    outer loop
      vertex 103.74 22.7 3
      vertex 106.84 47.15 3
      vertex 103.74 83.3 3
    endloop
  endfacet
  facet normal 0 0 1
    outer loop
      vertex 109.44 47.15 3
      vertex 103.74 83.3 3
      vertex 106.84 47.15 3
    endloop
  endfacet
  facet normal -0 0 1
    outer loop
      vertex 76.11 88 3
      vertex 103.74 83.3 3
      vertex 107.44 88 3
    endloop
  endfacet
  facet normal -0 0 1
    outer loop
      vertex 76.11 85.4 3
      vertex 103.74 83.3 3
      vertex 76.11 88 3
    endloop
  endfacet
  facet normal -0 0 1
    outer loop
      vertex 69.81 85.4 3
      vertex 103.74 83.3 3
      vertex 76.11 85.4 3
    endloop
  endfacet
  facet normal 0 0 1
    outer loop
      vertex 39.63 85.4 3
      vertex 69.81 85.4 3
      vertex 39.63 88 3
    endloop
  endfacet
  facet normal -0 0 1
    outer loop
      vertex 39.63 85.4 3
      vertex 103.74 83.3 3
      vertex 69.81 85.4 3
    endloop
  endfacet
  facet normal 0 0 1
    outer loop
      vertex 7.7 83.3 3
      vertex 39.63 85.4 3
      vertex 33.33 85.4 3
    endloop
  endfacet
  facet normal 0 0 1
    outer loop
      vertex 39.63 85.4 3
      vertex 7.7 83.3 3
      vertex 103.74 83.3 3
    endloop
  endfacet
  facet normal -0 0 1
    outer loop
      vertex 103.74 22.7 3
      vertex 109.44 2 3
      vertex 109.44 40.85 3
    endloop
  endfacet
  facet normal 0 -0 1
    outer loop
      vertex 107.44 0 3
      vertex 109.44 2 3
      vertex 103.74 22.7 3
    endloop
  endfacet
  facet normal 0 0 1
    outer loop
      vertex 103.74 22.7 3
      vertex 109.44 40.85 3
      vertex 106.84 40.85 3
    endloop
  endfacet
  facet normal 0 0 1
    outer loop
      vertex 106.84 47.15 3
      vertex 103.74 22.7 3
      vertex 106.84 40.85 3
    endloop
  endfacet
  facet normal 0 0 1
    outer loop
      vertex 109.44 2 3
      vertex 107.44 0 3
      vertex 109.004 0.753021 3
    endloop
  endfacet
  facet normal -0 0 1
    outer loop
      vertex 76.11 2.6 3
      vertex 107.44 0 3
      vertex 103.74 22.7 3
    endloop
  endfacet
  facet normal 0 0 1
    outer loop
      vertex 107.44 0 3
      vertex 76.11 2.6 3
      vertex 76.11 0 3
    endloop
  endfacet
  facet normal 0 0 1
    outer loop
      vertex 33.33 88 3
      vertex 7.7 83.3 3
      vertex 33.33 85.4 3
    endloop
  endfacet
  facet normal 0 0 1
    outer loop
      vertex 7.7 83.3 3
      vertex 2.6 47.15 3
      vertex 7.7 22.7 3
    endloop
  endfacet
  facet normal -0 0 1
    outer loop
      vertex 2 88 3
      vertex 7.7 83.3 3
      vertex 33.33 88 3
    endloop
  endfacet
  facet normal -0 0 1
    outer loop
      vertex 0 86 3
      vertex 7.7 83.3 3
      vertex 2 88 3
    endloop
  endfacet
  facet normal 0 0 1
    outer loop
      vertex 0 86 3
      vertex 2 88 3
      vertex 0.43634 87.247 3
    endloop
  endfacet
  facet normal 0 0 1
    outer loop
      vertex 0 47.15 3
      vertex 7.7 83.3 3
      vertex 0 86 3
    endloop
  endfacet
  facet normal 0 0 1
    outer loop
      vertex 7.7 83.3 3
      vertex 0 47.15 3
      vertex 2.6 47.15 3
    endloop
  endfacet
  facet normal 0 0 1
    outer loop
      vertex 69.81 0 3
      vertex 39.63 2.6 3
      vertex 39.63 0 3
    endloop
  endfacet
  facet normal -0.330281 -0.943883 0
    outer loop
      vertex 0.753021 0.43634 1.8
      vertex 2 0 3
      vertex 0.753021 0.43634 3
    endloop
  endfacet
  facet normal -0.330281 -0.943883 -0
    outer loop
      vertex 2 0 3
      vertex 0.753021 0.43634 1.8
      vertex 2 0 1.8
    endloop
  endfacet
  facet normal 0 1 -0
    outer loop
      vertex 33.33 88 1.8
      vertex 2 88 3
      vertex 33.33 88 3
    endloop
  endfacet
  facet normal 0 1 0
    outer loop
      vertex 2 88 3
      vertex 33.33 88 1.8
      vertex 2 88 1.8
    endloop
  endfacet
  facet normal 0 1 -0
    outer loop
      vertex 107.44 88 1.8
      vertex 76.11 88 3
      vertex 107.44 88 3
    endloop
  endfacet
  facet normal 0 1 0
    outer loop
      vertex 76.11 88 3
      vertex 107.44 88 1.8
      vertex 76.11 88 1.8
    endloop
  endfacet
  facet normal 0 1 -0
    outer loop
      vertex 69.81 88 1.8
      vertex 39.63 88 3
      vertex 69.81 88 3
    endloop
  endfacet
  facet normal 0 1 0
    outer loop
      vertex 39.63 88 3
      vertex 69.81 88 1.8
      vertex 39.63 88 1.8
    endloop
  endfacet
  facet normal 1 -0 0
    outer loop
      vertex 109.44 47.15 3
      vertex 109.44 86 1.8
      vertex 109.44 86 3
    endloop
  endfacet
  facet normal 1 0 0
    outer loop
      vertex 109.44 86 1.8
      vertex 109.44 47.15 3
      vertex 109.44 47.15 1.8
    endloop
  endfacet
  facet normal 1 -0 0
    outer loop
      vertex 109.44 2 3
      vertex 109.44 40.85 1.8
      vertex 109.44 40.85 3
    endloop
  endfacet
  facet normal 1 0 0
    outer loop
      vertex 109.44 40.85 1.8
      vertex 109.44 2 3
      vertex 109.44 2 1.8
    endloop
  endfacet
  facet normal -1 0 0
    outer loop
      vertex 0 2 1.8
      vertex 0 40.85 3
      vertex 0 40.85 1.8
    endloop
  endfacet
  facet normal -1 -0 0
    outer loop
      vertex 0 40.85 3
      vertex 0 2 1.8
      vertex 0 2 3
    endloop
  endfacet
  facet normal -1 0 0
    outer loop
      vertex 0 47.15 1.8
      vertex 0 86 3
      vertex 0 86 1.8
    endloop
  endfacet
  facet normal -1 -0 0
    outer loop
      vertex 0 86 3
      vertex 0 47.15 1.8
      vertex 0 47.15 3
    endloop
  endfacet
  facet normal -0.943884 0.330276 0
    outer loop
      vertex 0 86 1.8
      vertex 0.43634 87.247 3
      vertex 0.43634 87.247 1.8
    endloop
  endfacet
  facet normal -0.943884 0.330276 0
    outer loop
      vertex 0.43634 87.247 3
      vertex 0 86 1.8
      vertex 0 86 3
    endloop
  endfacet
  facet normal 0 -1 0
    outer loop
      vertex 2 0 1.8
      vertex 33.33 0 3
      vertex 2 0 3
    endloop
  endfacet
  facet normal 0 -1 -0
    outer loop
      vertex 33.33 0 3
      vertex 2 0 1.8
      vertex 33.33 0 1.8
    endloop
  endfacet
  facet normal 0 -1 0
    outer loop
      vertex 76.11 0 1.8
      vertex 107.44 0 3
      vertex 76.11 0 3
    endloop
  endfacet
  facet normal 0 -1 -0
    outer loop
      vertex 107.44 0 3
      vertex 76.11 0 1.8
      vertex 107.44 0 1.8
    endloop
  endfacet
  facet normal 0 -1 0
    outer loop
      vertex 39.63 0 1.8
      vertex 69.81 0 3
      vertex 39.63 0 3
    endloop
  endfacet
  facet normal 0 -1 -0
    outer loop
      vertex 69.81 0 3
      vertex 39.63 0 1.8
      vertex 69.81 0 1.8
    endloop
  endfacet
  facet normal 0.900977 0.433866 0
    outer loop
      vertex 109.44 86 3
      vertex 108.687 87.5637 1.8
      vertex 108.687 87.5637 3
    endloop
  endfacet
  facet normal 0.900977 0.433866 0
    outer loop
      vertex 108.687 87.5637 1.8
      vertex 109.44 86 3
      vertex 109.44 86 1.8
    endloop
  endfacet
  facet normal 0.707107 -0.707107 0
    outer loop
      vertex 107.44 1.5 1.8
      vertex 107.94 2 0
      vertex 107.94 2 1.8
    endloop
  endfacet
  facet normal 0.707107 -0.707107 0
    outer loop
      vertex 107.94 2 0
      vertex 107.44 1.5 1.8
      vertex 107.44 1.5 0
    endloop
  endfacet
  facet normal 0.707107 0.707107 0
    outer loop
      vertex 107.94 86 1.8
      vertex 107.44 86.5 0
      vertex 107.44 86.5 1.8
    endloop
  endfacet
  facet normal 0.707107 0.707107 0
    outer loop
      vertex 107.44 86.5 0
      vertex 107.94 86 1.8
      vertex 107.94 86 0
    endloop
  endfacet
  facet normal -1 0 0
    outer loop
      vertex 1.5 47.15 0
      vertex 1.5 86 1.8
      vertex 1.5 86 0
    endloop
  endfacet
  facet normal -1 -0 0
    outer loop
      vertex 1.5 86 1.8
      vertex 1.5 47.15 0
      vertex 1.5 47.15 1.8
    endloop
  endfacet
  facet normal -1 0 0
    outer loop
      vertex 1.5 2 0
      vertex 1.5 40.85 1.8
      vertex 1.5 40.85 0
    endloop
  endfacet
  facet normal -1 -0 0
    outer loop
      vertex 1.5 40.85 1.8
      vertex 1.5 2 0
      vertex 1.5 2 1.8
    endloop
  endfacet
  facet normal 1 -0 0
    outer loop
      vertex 107.94 47.15 1.8
      vertex 107.94 86 0
      vertex 107.94 86 1.8
    endloop
  endfacet
  facet normal 1 0 0
    outer loop
      vertex 107.94 86 0
      vertex 107.94 47.15 1.8
      vertex 107.94 47.15 0
    endloop
  endfacet
  facet normal 1 -0 0
    outer loop
      vertex 107.94 2 1.8
      vertex 107.94 40.85 0
      vertex 107.94 40.85 1.8
    endloop
  endfacet
  facet normal 1 0 0
    outer loop
      vertex 107.94 40.85 0
      vertex 107.94 2 1.8
      vertex 107.94 2 0
    endloop
  endfacet
  facet normal 0 0 -1
    outer loop
      vertex 69.81 1.5 0
      vertex 39.63 1.5 0
      vertex 69.81 2.6 0
    endloop
  endfacet
  facet normal 0 0 -1
    outer loop
      vertex 103.74 83.3 0
      vertex 69.81 85.4 0
      vertex 76.11 85.4 0
    endloop
  endfacet
  facet normal 0 0 -1
    outer loop
      vertex 69.81 85.4 0
      vertex 39.63 85.4 0
      vertex 69.81 86.5 0
    endloop
  endfacet
  facet normal 0 0 -1
    outer loop
      vertex 103.74 83.3 0
      vertex 39.63 85.4 0
      vertex 69.81 85.4 0
    endloop
  endfacet
  facet normal 0 0 -1
    outer loop
      vertex 7.7 83.3 0
      vertex 39.63 85.4 0
      vertex 103.74 83.3 0
    endloop
  endfacet
  facet normal -0 0 -1
    outer loop
      vertex 39.63 85.4 0
      vertex 7.7 83.3 0
      vertex 33.33 85.4 0
    endloop
  endfacet
  facet normal 0 0 -1
    outer loop
      vertex 7.7 83.3 0
      vertex 33.33 86.5 0
      vertex 33.33 85.4 0
    endloop
  endfacet
  facet normal 0 0 -1
    outer loop
      vertex 7.7 22.7 0
      vertex 2.6 47.15 0
      vertex 7.7 83.3 0
    endloop
  endfacet
  facet normal 0 0 -1
    outer loop
      vertex 7.7 83.3 0
      vertex 2 86.5 0
      vertex 33.33 86.5 0
    endloop
  endfacet
  facet normal 0 0 -1
    outer loop
      vertex 1.5 47.15 0
      vertex 7.7 83.3 0
      vertex 2.6 47.15 0
    endloop
  endfacet
  facet normal -0 0 -1
    outer loop
      vertex 7.7 83.3 0
      vertex 1.5 47.15 0
      vertex 1.5 86 0
    endloop
  endfacet
  facet normal 0 0 -1
    outer loop
      vertex 7.7 83.3 0
      vertex 1.5 86 0
      vertex 2 86.5 0
    endloop
  endfacet
  facet normal 0 0 -1
    outer loop
      vertex 103.74 22.7 0
      vertex 107.94 2 0
      vertex 107.44 1.5 0
    endloop
  endfacet
  facet normal 0 0 -1
    outer loop
      vertex 107.94 2 0
      vertex 103.74 22.7 0
      vertex 107.94 40.85 0
    endloop
  endfacet
  facet normal -0 0 -1
    outer loop
      vertex 106.84 40.85 0
      vertex 103.74 22.7 0
      vertex 106.84 47.15 0
    endloop
  endfacet
  facet normal -0 0 -1
    outer loop
      vertex 107.94 40.85 0
      vertex 103.74 22.7 0
      vertex 106.84 40.85 0
    endloop
  endfacet
  facet normal 0 0 -1
    outer loop
      vertex 76.11 2.6 0
      vertex 107.44 1.5 0
      vertex 76.11 1.5 0
    endloop
  endfacet
  facet normal 0 0 -1
    outer loop
      vertex 107.44 1.5 0
      vertex 76.11 2.6 0
      vertex 103.74 22.7 0
    endloop
  endfacet
  facet normal 0 0 -1
    outer loop
      vertex 69.81 2.6 0
      vertex 103.74 22.7 0
      vertex 76.11 2.6 0
    endloop
  endfacet
  facet normal 0 0 -1
    outer loop
      vertex 39.63 2.6 0
      vertex 69.81 2.6 0
      vertex 39.63 1.5 0
    endloop
  endfacet
  facet normal 0 0 -1
    outer loop
      vertex 7.7 22.7 0
      vertex 69.81 2.6 0
      vertex 39.63 2.6 0
    endloop
  endfacet
  facet normal 0 0 -1
    outer loop
      vertex 7.7 22.7 0
      vertex 39.63 2.6 0
      vertex 33.33 2.6 0
    endloop
  endfacet
  facet normal 0 0 -1
    outer loop
      vertex 69.81 2.6 0
      vertex 7.7 22.7 0
      vertex 103.74 22.7 0
    endloop
  endfacet
  facet normal 0 0 -1
    outer loop
      vertex 103.74 83.3 0
      vertex 107.94 86 0
      vertex 107.94 47.15 0
    endloop
  endfacet
  facet normal 0 0 -1
    outer loop
      vertex 103.74 83.3 0
      vertex 107.94 47.15 0
      vertex 106.84 47.15 0
    endloop
  endfacet
  facet normal 0 0 -1
    outer loop
      vertex 103.74 83.3 0
      vertex 106.84 47.15 0
      vertex 103.74 22.7 0
    endloop
  endfacet
  facet normal -0 0 -1
    outer loop
      vertex 107.94 86 0
      vertex 103.74 83.3 0
      vertex 107.44 86.5 0
    endloop
  endfacet
  facet normal 0 0 -1
    outer loop
      vertex 76.11 86.5 0
      vertex 103.74 83.3 0
      vertex 76.11 85.4 0
    endloop
  endfacet
  facet normal 0 0 -1
    outer loop
      vertex 103.74 83.3 0
      vertex 76.11 86.5 0
      vertex 107.44 86.5 0
    endloop
  endfacet
  facet normal 0 0 -1
    outer loop
      vertex 2 1.5 0
      vertex 33.33 2.6 0
      vertex 33.33 1.5 0
    endloop
  endfacet
  facet normal 0 0 -1
    outer loop
      vertex 2.6 47.15 0
      vertex 7.7 22.7 0
      vertex 2.6 40.85 0
    endloop
  endfacet
  facet normal -0 0 -1
    outer loop
      vertex 33.33 2.6 0
      vertex 2 1.5 0
      vertex 7.7 22.7 0
    endloop
  endfacet
  facet normal 0 0 -1
    outer loop
      vertex 1.5 2 0
      vertex 7.7 22.7 0
      vertex 2 1.5 0
    endloop
  endfacet
  facet normal 0 0 -1
    outer loop
      vertex 1.5 40.85 0
      vertex 7.7 22.7 0
      vertex 1.5 2 0
    endloop
  endfacet
  facet normal 0 0 -1
    outer loop
      vertex 7.7 22.7 0
      vertex 1.5 40.85 0
      vertex 2.6 40.85 0
    endloop
  endfacet
  facet normal -0 0 -1
    outer loop
      vertex 69.81 86.5 0
      vertex 39.63 85.4 0
      vertex 39.63 86.5 0
    endloop
  endfacet
  facet normal 0 1 -0
    outer loop
      vertex 107.44 86.5 0
      vertex 76.11 86.5 1.8
      vertex 107.44 86.5 1.8
    endloop
  endfacet
  facet normal 0 1 0
    outer loop
      vertex 76.11 86.5 1.8
      vertex 107.44 86.5 0
      vertex 76.11 86.5 0
    endloop
  endfacet
  facet normal 0 1 -0
    outer loop
      vertex 33.33 86.5 0
      vertex 2 86.5 1.8
      vertex 33.33 86.5 1.8
    endloop
  endfacet
  facet normal 0 1 0
    outer loop
      vertex 2 86.5 1.8
      vertex 33.33 86.5 0
      vertex 2 86.5 0
    endloop
  endfacet
  facet normal 0 1 -0
    outer loop
      vertex 69.81 86.5 0
      vertex 39.63 86.5 1.8
      vertex 69.81 86.5 1.8
    endloop
  endfacet
  facet normal 0 1 0
    outer loop
      vertex 39.63 86.5 1.8
      vertex 69.81 86.5 0
      vertex 39.63 86.5 0
    endloop
  endfacet
  facet normal -0.707107 -0.707107 0
    outer loop
      vertex 2 1.5 0
      vertex 1.5 2 1.8
      vertex 1.5 2 0
    endloop
  endfacet
  facet normal -0.707107 -0.707107 0
    outer loop
      vertex 1.5 2 1.8
      vertex 2 1.5 0
      vertex 2 1.5 1.8
    endloop
  endfacet
  facet normal -0.707107 0.707107 0
    outer loop
      vertex 1.5 86 0
      vertex 2 86.5 1.8
      vertex 2 86.5 0
    endloop
  endfacet
  facet normal -0.707107 0.707107 0
    outer loop
      vertex 2 86.5 1.8
      vertex 1.5 86 0
      vertex 1.5 86 1.8
    endloop
  endfacet
  facet normal 0 -1 0
    outer loop
      vertex 76.11 1.5 0
      vertex 107.44 1.5 1.8
      vertex 76.11 1.5 1.8
    endloop
  endfacet
  facet normal 0 -1 -0
    outer loop
      vertex 107.44 1.5 1.8
      vertex 76.11 1.5 0
      vertex 107.44 1.5 0
    endloop
  endfacet
  facet normal 0 -1 0
    outer loop
      vertex 2 1.5 0
      vertex 33.33 1.5 1.8
      vertex 2 1.5 1.8
    endloop
  endfacet
  facet normal 0 -1 -0
    outer loop
      vertex 33.33 1.5 1.8
      vertex 2 1.5 0
      vertex 33.33 1.5 0
    endloop
  endfacet
  facet normal 0 -1 0
    outer loop
      vertex 39.63 1.5 0
      vertex 69.81 1.5 1.8
      vertex 39.63 1.5 1.8
    endloop
  endfacet
  facet normal 0 -1 -0
    outer loop
      vertex 69.81 1.5 1.8
      vertex 39.63 1.5 0
      vertex 69.81 1.5 0
    endloop
  endfacet
  facet normal 1 0 0
    outer loop
      vertex 33.33 2.6 3
      vertex 33.33 1.5 1.8
      vertex 33.33 2.6 0
    endloop
  endfacet
  facet normal 1 -0 0
    outer loop
      vertex 33.33 0 3
      vertex 33.33 1.5 1.8
      vertex 33.33 2.6 3
    endloop
  endfacet
  facet normal 1 0 0
    outer loop
      vertex 33.33 1.5 1.8
      vertex 33.33 0 3
      vertex 33.33 0 1.8
    endloop
  endfacet
  facet normal 1 0 0
    outer loop
      vertex 33.33 2.6 0
      vertex 33.33 1.5 1.8
      vertex 33.33 1.5 0
    endloop
  endfacet
  facet normal -1 0 0
    outer loop
      vertex 39.63 1.5 1.8
      vertex 39.63 2.6 0
      vertex 39.63 1.5 0
    endloop
  endfacet
  facet normal -1 0 0
    outer loop
      vertex 39.63 2.6 0
      vertex 39.63 1.5 1.8
      vertex 39.63 2.6 3
    endloop
  endfacet
  facet normal -1 0 0
    outer loop
      vertex 39.63 0 3
      vertex 39.63 1.5 1.8
      vertex 39.63 0 1.8
    endloop
  endfacet
  facet normal -1 0 0
    outer loop
      vertex 39.63 1.5 1.8
      vertex 39.63 0 3
      vertex 39.63 2.6 3
    endloop
  endfacet
  facet normal 0 -1 0
    outer loop
      vertex 33.33 2.6 0
      vertex 39.63 2.6 3
      vertex 33.33 2.6 3
    endloop
  endfacet
  facet normal 0 -1 -0
    outer loop
      vertex 39.63 2.6 3
      vertex 33.33 2.6 0
      vertex 39.63 2.6 0
    endloop
  endfacet
  facet normal 1 0 0
    outer loop
      vertex 33.33 88 3
      vertex 33.33 86.5 1.8
      vertex 33.33 88 1.8
    endloop
  endfacet
  facet normal 1 -0 0
    outer loop
      vertex 33.33 85.4 3
      vertex 33.33 86.5 1.8
      vertex 33.33 88 3
    endloop
  endfacet
  facet normal 1 0 0
    outer loop
      vertex 33.33 85.4 0
      vertex 33.33 86.5 1.8
      vertex 33.33 85.4 3
    endloop
  endfacet
  facet normal 1 0 0
    outer loop
      vertex 33.33 86.5 1.8
      vertex 33.33 85.4 0
      vertex 33.33 86.5 0
    endloop
  endfacet
  facet normal -1 0 0
    outer loop
      vertex 39.63 86.5 0
      vertex 39.63 85.4 0
      vertex 39.63 86.5 1.8
    endloop
  endfacet
  facet normal -1 0 0
    outer loop
      vertex 39.63 86.5 1.8
      vertex 39.63 88 3
      vertex 39.63 88 1.8
    endloop
  endfacet
  facet normal -1 0 0
    outer loop
      vertex 39.63 86.5 1.8
      vertex 39.63 85.4 3
      vertex 39.63 88 3
    endloop
  endfacet
  facet normal -1 0 0
    outer loop
      vertex 39.63 85.4 3
      vertex 39.63 86.5 1.8
      vertex 39.63 85.4 0
    endloop
  endfacet
  facet normal 0 1 -0
    outer loop
      vertex 39.63 85.4 0
      vertex 33.33 85.4 3
      vertex 39.63 85.4 3
    endloop
  endfacet
  facet normal 0 1 0
    outer loop
      vertex 33.33 85.4 3
      vertex 39.63 85.4 0
      vertex 33.33 85.4 0
    endloop
  endfacet
  facet normal 1 0 0
    outer loop
      vertex 69.81 2.6 3
      vertex 69.81 1.5 1.8
      vertex 69.81 2.6 0
    endloop
  endfacet
  facet normal 1 -0 0
    outer loop
      vertex 69.81 0 3
      vertex 69.81 1.5 1.8
      vertex 69.81 2.6 3
    endloop
  endfacet
  facet normal 1 0 0
    outer loop
      vertex 69.81 1.5 1.8
      vertex 69.81 0 3
      vertex 69.81 0 1.8
    endloop
  endfacet
  facet normal 1 0 0
    outer loop
      vertex 69.81 2.6 0
      vertex 69.81 1.5 1.8
      vertex 69.81 1.5 0
    endloop
  endfacet
  facet normal -1 0 0
    outer loop
      vertex 76.11 1.5 1.8
      vertex 76.11 2.6 0
      vertex 76.11 1.5 0
    endloop
  endfacet
  facet normal -1 0 0
    outer loop
      vertex 76.11 2.6 0
      vertex 76.11 1.5 1.8
      vertex 76.11 2.6 3
    endloop
  endfacet
  facet normal -1 0 0
    outer loop
      vertex 76.11 0 3
      vertex 76.11 1.5 1.8
      vertex 76.11 0 1.8
    endloop
  endfacet
  facet normal -1 0 0
    outer loop
      vertex 76.11 1.5 1.8
      vertex 76.11 0 3
      vertex 76.11 2.6 3
    endloop
  endfacet
  facet normal 0 -1 0
    outer loop
      vertex 69.81 2.6 0
      vertex 76.11 2.6 3
      vertex 69.81 2.6 3
    endloop
  endfacet
  facet normal 0 -1 -0
    outer loop
      vertex 76.11 2.6 3
      vertex 69.81 2.6 0
      vertex 76.11 2.6 0
    endloop
  endfacet
  facet normal 1 0 0
    outer loop
      vertex 69.81 88 3
      vertex 69.81 86.5 1.8
      vertex 69.81 88 1.8
    endloop
  endfacet
  facet normal 1 -0 0
    outer loop
      vertex 69.81 85.4 3
      vertex 69.81 86.5 1.8
      vertex 69.81 88 3
    endloop
  endfacet
  facet normal 1 0 0
    outer loop
      vertex 69.81 85.4 0
      vertex 69.81 86.5 1.8
      vertex 69.81 85.4 3
    endloop
  endfacet
  facet normal 1 0 0
    outer loop
      vertex 69.81 86.5 1.8
      vertex 69.81 85.4 0
      vertex 69.81 86.5 0
    endloop
  endfacet
  facet normal -1 0 0
    outer loop
      vertex 76.11 86.5 0
      vertex 76.11 85.4 0
      vertex 76.11 86.5 1.8
    endloop
  endfacet
  facet normal -1 0 0
    outer loop
      vertex 76.11 86.5 1.8
      vertex 76.11 88 3
      vertex 76.11 88 1.8
    endloop
  endfacet
  facet normal -1 0 0
    outer loop
      vertex 76.11 86.5 1.8
      vertex 76.11 85.4 3
      vertex 76.11 88 3
    endloop
  endfacet
  facet normal -1 0 0
    outer loop
      vertex 76.11 85.4 3
      vertex 76.11 86.5 1.8
      vertex 76.11 85.4 0
    endloop
  endfacet
  facet normal 0 1 -0
    outer loop
      vertex 76.11 85.4 0
      vertex 69.81 85.4 3
      vertex 76.11 85.4 3
    endloop
  endfacet
  facet normal 0 1 0
    outer loop
      vertex 69.81 85.4 3
      vertex 76.11 85.4 0
      vertex 69.81 85.4 0
    endloop
  endfacet
  facet normal -1 0 0
    outer loop
      vertex 2.6 40.85 0
      vertex 2.6 47.15 3
      vertex 2.6 47.15 0
    endloop
  endfacet
  facet normal -1 -0 0
    outer loop
      vertex 2.6 47.15 3
      vertex 2.6 40.85 0
      vertex 2.6 40.85 3
    endloop
  endfacet
  facet normal 0 1 0
    outer loop
      vertex 2.6 40.85 3
      vertex 1.5 40.85 1.8
      vertex 0 40.85 3
    endloop
  endfacet
  facet normal 0 1 -0
    outer loop
      vertex 2.6 40.85 0
      vertex 1.5 40.85 1.8
      vertex 2.6 40.85 3
    endloop
  endfacet
  facet normal 0 1 0
    outer loop
      vertex 1.5 40.85 1.8
      vertex 2.6 40.85 0
      vertex 1.5 40.85 0
    endloop
  endfacet
  facet normal 0 1 0
    outer loop
      vertex 0 40.85 3
      vertex 1.5 40.85 1.8
      vertex 0 40.85 1.8
    endloop
  endfacet
  facet normal 0 -1 0
    outer loop
      vertex 1.5 47.15 1.8
      vertex 0 47.15 3
      vertex 0 47.15 1.8
    endloop
  endfacet
  facet normal 0 -1 0
    outer loop
      vertex 0 47.15 3
      vertex 1.5 47.15 1.8
      vertex 2.6 47.15 3
    endloop
  endfacet
  facet normal 0 -1 0
    outer loop
      vertex 2.6 47.15 0
      vertex 1.5 47.15 1.8
      vertex 1.5 47.15 0
    endloop
  endfacet
  facet normal 0 -1 0
    outer loop
      vertex 1.5 47.15 1.8
      vertex 2.6 47.15 0
      vertex 2.6 47.15 3
    endloop
  endfacet
  facet normal 1 -0 0
    outer loop
      vertex 106.84 40.85 3
      vertex 106.84 47.15 0
      vertex 106.84 47.15 3
    endloop
  endfacet
  facet normal 1 0 0
    outer loop
      vertex 106.84 47.15 0
      vertex 106.84 40.85 3
      vertex 106.84 40.85 0
    endloop
  endfacet
  facet normal 0 -1 0
    outer loop
      vertex 106.84 47.15 3
      vertex 107.94 47.15 1.8
      vertex 109.44 47.15 3
    endloop
  endfacet
  facet normal 0 -1 0
    outer loop
      vertex 106.84 47.15 0
      vertex 107.94 47.15 1.8
      vertex 106.84 47.15 3
    endloop
  endfacet
  facet normal 0 -1 -0
    outer loop
      vertex 107.94 47.15 1.8
      vertex 106.84 47.15 0
      vertex 107.94 47.15 0
    endloop
  endfacet
  facet normal 0 -1 -0
    outer loop
      vertex 109.44 47.15 3
      vertex 107.94 47.15 1.8
      vertex 109.44 47.15 1.8
    endloop
  endfacet
  facet normal 0 1 0
    outer loop
      vertex 107.94 40.85 1.8
      vertex 109.44 40.85 3
      vertex 109.44 40.85 1.8
    endloop
  endfacet
  facet normal 0 1 0
    outer loop
      vertex 109.44 40.85 3
      vertex 107.94 40.85 1.8
      vertex 106.84 40.85 3
    endloop
  endfacet
  facet normal 0 1 0
    outer loop
      vertex 106.84 40.85 0
      vertex 107.94 40.85 1.8
      vertex 107.94 40.85 0
    endloop
  endfacet
  facet normal 0 1 0
    outer loop
      vertex 107.94 40.85 1.8
      vertex 106.84 40.85 0
      vertex 106.84 40.85 3
    endloop
  endfacet
  facet normal 1 -0 0
    outer loop
      vertex 7.7 22.7 3
      vertex 7.7 83.3 0
      vertex 7.7 83.3 3
    endloop
  endfacet
  facet normal 1 0 0
    outer loop
      vertex 7.7 83.3 0
      vertex 7.7 22.7 3
      vertex 7.7 22.7 0
    endloop
  endfacet
  facet normal -1 0 0
    outer loop
      vertex 103.74 22.7 0
      vertex 103.74 83.3 3
      vertex 103.74 83.3 0
    endloop
  endfacet
  facet normal -1 -0 0
    outer loop
      vertex 103.74 83.3 3
      vertex 103.74 22.7 0
      vertex 103.74 22.7 3
    endloop
  endfacet
  facet normal 0 -1 0
    outer loop
      vertex 7.7 83.3 0
      vertex 103.74 83.3 3
      vertex 7.7 83.3 3
    endloop
  endfacet
  facet normal 0 -1 -0
    outer loop
      vertex 103.74 83.3 3
      vertex 7.7 83.3 0
      vertex 103.74 83.3 0
    endloop
  endfacet
  facet normal 0 1 -0
    outer loop
      vertex 103.74 22.7 0
      vertex 7.7 22.7 3
      vertex 103.74 22.7 3
    endloop
  endfacet
  facet normal 0 1 0
    outer loop
      vertex 7.7 22.7 3
      vertex 103.74 22.7 0
      vertex 7.7 22.7 0
    endloop
  endfacet
endsolid OpenSCAD_Model
