solid OpenSCAD_Model
  facet normal 0.433808 -0.901005 0
    outer loop
      vertex 107.44 0 1.8
      vertex 109.004 0.753021 3
      vertex 107.44 0 3
    endloop
  endfacet
  facet normal 0.433808 -0.901005 0
    outer loop
      vertex 109.004 0.753021 3
      vertex 107.44 0 1.8
      vertex 109.004 0.753021 1.8
    endloop
  endfacet
  facet normal 0.943963 -0.330052 0
    outer loop
      vertex 109.004 0.753021 3
      vertex 109.44 2 1.8
      vertex 109.44 2 3
    endloop
  endfacet
  facet normal 0.943963 -0.330052 0
    outer loop
      vertex 109.44 2 1.8
      vertex 109.004 0.753021 3
      vertex 109.004 0.753021 1.8
    endloop
  endfacet
  facet normal -0.900968 -0.433885 0
    outer loop
      vertex 0.753021 0.43634 1.8
      vertex 0 2 3
      vertex 0 2 1.8
    endloop
  endfacet
  facet normal -0.900968 -0.433885 0
    outer loop
      vertex 0 2 3
      vertex 0.753021 0.43634 1.8
      vertex 0.753021 0.43634 3
    endloop
  endfacet
  facet normal -0.433875 0.900973 0
    outer loop
      vertex 2 85.5 1.8
      vertex 0.43634 84.747 3
      vertex 2 85.5 3
    endloop
  endfacet
  facet normal -0.433875 0.900973 0
    outer loop
      vertex 0.43634 84.747 3
      vertex 2 85.5 1.8
      vertex 0.43634 84.747 1.8
    endloop
  endfacet
  facet normal 0 0 -1
    outer loop
      vertex 107.94 83.5 1.8
      vertex 109.44 83.5 1.8
      vertex 109.44 45.9 1.8
    endloop
  endfacet
  facet normal 0 0 -1
    outer loop
      vertex 107.94 83.5 1.8
      vertex 109.44 45.9 1.8
      vertex 107.94 45.9 1.8
    endloop
  endfacet
  facet normal 0 0 -1
    outer loop
      vertex 109.44 83.5 1.8
      vertex 107.94 83.5 1.8
      vertex 108.687 85.0637 1.8
    endloop
  endfacet
  facet normal 0 0 -1
    outer loop
      vertex 107.44 84 1.8
      vertex 108.687 85.0637 1.8
      vertex 107.94 83.5 1.8
    endloop
  endfacet
  facet normal 0 0 -1
    outer loop
      vertex 107.44 84 1.8
      vertex 107.44 85.5 1.8
      vertex 108.687 85.0637 1.8
    endloop
  endfacet
  facet normal 0 0 -1
    outer loop
      vertex 76.11 84 1.8
      vertex 107.44 85.5 1.8
      vertex 107.44 84 1.8
    endloop
  endfacet
  facet normal -0 0 -1
    outer loop
      vertex 107.44 85.5 1.8
      vertex 76.11 84 1.8
      vertex 76.11 85.5 1.8
    endloop
  endfacet
  facet normal 0 0 -1
    outer loop
      vertex 107.44 1.5 1.8
      vertex 109.004 0.753021 1.8
      vertex 107.44 0 1.8
    endloop
  endfacet
  facet normal 0 0 -1
    outer loop
      vertex 109.004 0.753021 1.8
      vertex 107.44 1.5 1.8
      vertex 107.94 2 1.8
    endloop
  endfacet
  facet normal 0 0 -1
    outer loop
      vertex 76.11 0 1.8
      vertex 107.44 1.5 1.8
      vertex 107.44 0 1.8
    endloop
  endfacet
  facet normal -0 0 -1
    outer loop
      vertex 107.44 1.5 1.8
      vertex 76.11 0 1.8
      vertex 76.11 1.5 1.8
    endloop
  endfacet
  facet normal 0 0 -1
    outer loop
      vertex 107.94 2 1.8
      vertex 109.44 2 1.8
      vertex 109.004 0.753021 1.8
    endloop
  endfacet
  facet normal 0 0 -1
    outer loop
      vertex 109.44 2 1.8
      vertex 107.94 2 1.8
      vertex 109.44 39.6 1.8
    endloop
  endfacet
  facet normal -0 0 -1
    outer loop
      vertex 109.44 39.6 1.8
      vertex 107.94 2 1.8
      vertex 107.94 39.6 1.8
    endloop
  endfacet
  facet normal 0 0 -1
    outer loop
      vertex 2 0 1.8
      vertex 33.33 1.5 1.8
      vertex 33.33 0 1.8
    endloop
  endfacet
  facet normal 0 0 -1
    outer loop
      vertex 2 0 1.8
      vertex 2 1.5 1.8
      vertex 33.33 1.5 1.8
    endloop
  endfacet
  facet normal 0 0 -1
    outer loop
      vertex 0.753021 0.43634 1.8
      vertex 2 1.5 1.8
      vertex 2 0 1.8
    endloop
  endfacet
  facet normal -0 0 -1
    outer loop
      vertex 2 1.5 1.8
      vertex 0.753021 0.43634 1.8
      vertex 1.5 2 1.8
    endloop
  endfacet
  facet normal 0 0 -1
    outer loop
      vertex 0 2 1.8
      vertex 1.5 2 1.8
      vertex 0.753021 0.43634 1.8
    endloop
  endfacet
  facet normal 0 0 -1
    outer loop
      vertex 1.5 2 1.8
      vertex 0 2 1.8
      vertex 1.5 39.6 1.8
    endloop
  endfacet
  facet normal -0 0 -1
    outer loop
      vertex 1.5 39.6 1.8
      vertex 0 2 1.8
      vertex 0 39.6 1.8
    endloop
  endfacet
  facet normal 0 0 -1
    outer loop
      vertex 0 83.5 1.8
      vertex 1.5 83.5 1.8
      vertex 1.5 45.9 1.8
    endloop
  endfacet
  facet normal 0 0 -1
    outer loop
      vertex 0 83.5 1.8
      vertex 1.5 45.9 1.8
      vertex 0 45.9 1.8
    endloop
  endfacet
  facet normal 0 0 -1
    outer loop
      vertex 1.5 83.5 1.8
      vertex 0 83.5 1.8
      vertex 0.43634 84.747 1.8
    endloop
  endfacet
  facet normal 0 0 -1
    outer loop
      vertex 2 84 1.8
      vertex 33.33 85.5 1.8
      vertex 33.33 84 1.8
    endloop
  endfacet
  facet normal 0 0 -1
    outer loop
      vertex 2 84 1.8
      vertex 2 85.5 1.8
      vertex 33.33 85.5 1.8
    endloop
  endfacet
  facet normal 0 0 -1
    outer loop
      vertex 0.43634 84.747 1.8
      vertex 2 84 1.8
      vertex 1.5 83.5 1.8
    endloop
  endfacet
  facet normal 0 0 -1
    outer loop
      vertex 2 84 1.8
      vertex 0.43634 84.747 1.8
      vertex 2 85.5 1.8
    endloop
  endfacet
  facet normal 0 0 -1
    outer loop
      vertex 39.63 0 1.8
      vertex 69.81 1.5 1.8
      vertex 69.81 0 1.8
    endloop
  endfacet
  facet normal -0 0 -1
    outer loop
      vertex 69.81 1.5 1.8
      vertex 39.63 0 1.8
      vertex 39.63 1.5 1.8
    endloop
  endfacet
  facet normal 0 0 -1
    outer loop
      vertex 39.63 84 1.8
      vertex 69.81 85.5 1.8
      vertex 69.81 84 1.8
    endloop
  endfacet
  facet normal -0 0 -1
    outer loop
      vertex 69.81 85.5 1.8
      vertex 39.63 84 1.8
      vertex 39.63 85.5 1.8
    endloop
  endfacet
  facet normal 0.330249 0.943894 -0
    outer loop
      vertex 108.687 85.0637 1.8
      vertex 107.44 85.5 3
      vertex 108.687 85.0637 3
    endloop
  endfacet
  facet normal 0.330249 0.943894 0
    outer loop
      vertex 107.44 85.5 3
      vertex 108.687 85.0637 1.8
      vertex 107.44 85.5 1.8
    endloop
  endfacet
  facet normal 0 0 1
    outer loop
      vertex 69.81 85.5 3
      vertex 39.63 85.5 3
      vertex 69.81 82.9 3
    endloop
  endfacet
  facet normal 0 0 1
    outer loop
      vertex 104.74 4.7 3
      vertex 69.81 2.6 3
      vertex 76.11 2.6 3
    endloop
  endfacet
  facet normal 0 0 1
    outer loop
      vertex 69.81 2.6 3
      vertex 39.63 2.6 3
      vertex 69.81 0 3
    endloop
  endfacet
  facet normal -0 0 1
    outer loop
      vertex 10.7 4.7 3
      vertex 69.81 2.6 3
      vertex 104.74 4.7 3
    endloop
  endfacet
  facet normal 0 0 1
    outer loop
      vertex 69.81 2.6 3
      vertex 10.7 4.7 3
      vertex 39.63 2.6 3
    endloop
  endfacet
  facet normal 0 0 1
    outer loop
      vertex 39.63 2.6 3
      vertex 10.7 4.7 3
      vertex 33.33 2.6 3
    endloop
  endfacet
  facet normal 0 0 1
    outer loop
      vertex 10.7 4.7 3
      vertex 33.33 0 3
      vertex 33.33 2.6 3
    endloop
  endfacet
  facet normal 0 0 1
    outer loop
      vertex 10.7 65.3 3
      vertex 2.6 39.6 3
      vertex 10.7 4.7 3
    endloop
  endfacet
  facet normal 0 0 1
    outer loop
      vertex 10.7 4.7 3
      vertex 2 0 3
      vertex 33.33 0 3
    endloop
  endfacet
  facet normal -0 0 1
    outer loop
      vertex 0 39.6 3
      vertex 10.7 4.7 3
      vertex 2.6 39.6 3
    endloop
  endfacet
  facet normal 0 0 1
    outer loop
      vertex 10.7 4.7 3
      vertex 0 2 3
      vertex 2 0 3
    endloop
  endfacet
  facet normal 0 0 1
    outer loop
      vertex 10.7 4.7 3
      vertex 0 39.6 3
      vertex 0 2 3
    endloop
  endfacet
  facet normal 0 0 1
    outer loop
      vertex 2 0 3
      vertex 0 2 3
      vertex 0.753021 0.43634 3
    endloop
  endfacet
  facet normal 0 0 1
    outer loop
      vertex 107.44 85.5 3
      vertex 109.44 83.5 3
      vertex 108.687 85.0637 3
    endloop
  endfacet
  facet normal 0 0 1
    outer loop
      vertex 109.44 83.5 3
      vertex 107.44 85.5 3
      vertex 104.74 65.3 3
    endloop
  endfacet
  facet normal 0 0 1
    outer loop
      vertex 109.44 83.5 3
      vertex 104.74 65.3 3
      vertex 109.44 45.9 3
    endloop
  endfacet
  facet normal 0 0 1
    outer loop
      vertex 106.84 45.9 3
      vertex 104.74 65.3 3
      vertex 106.84 39.6 3
    endloop
  endfacet
  facet normal 0 0 1
    outer loop
      vertex 109.44 45.9 3
      vertex 104.74 65.3 3
      vertex 106.84 45.9 3
    endloop
  endfacet
  facet normal 0 0 1
    outer loop
      vertex 76.11 82.9 3
      vertex 107.44 85.5 3
      vertex 76.11 85.5 3
    endloop
  endfacet
  facet normal 0 0 1
    outer loop
      vertex 107.44 85.5 3
      vertex 76.11 82.9 3
      vertex 104.74 65.3 3
    endloop
  endfacet
  facet normal -0 0 1
    outer loop
      vertex 69.81 82.9 3
      vertex 104.74 65.3 3
      vertex 76.11 82.9 3
    endloop
  endfacet
  facet normal 0 0 1
    outer loop
      vertex 39.63 82.9 3
      vertex 69.81 82.9 3
      vertex 39.63 85.5 3
    endloop
  endfacet
  facet normal 0 0 1
    outer loop
      vertex 10.7 65.3 3
      vertex 69.81 82.9 3
      vertex 39.63 82.9 3
    endloop
  endfacet
  facet normal 0 0 1
    outer loop
      vertex 10.7 65.3 3
      vertex 39.63 82.9 3
      vertex 33.33 82.9 3
    endloop
  endfacet
  facet normal 0 0 1
    outer loop
      vertex 69.81 82.9 3
      vertex 10.7 65.3 3
      vertex 104.74 65.3 3
    endloop
  endfacet
  facet normal -0 0 1
    outer loop
      vertex 104.74 4.7 3
      vertex 109.44 2 3
      vertex 109.44 39.6 3
    endloop
  endfacet
  facet normal 0 -0 1
    outer loop
      vertex 107.44 0 3
      vertex 109.44 2 3
      vertex 104.74 4.7 3
    endloop
  endfacet
  facet normal 0 0 1
    outer loop
      vertex 104.74 4.7 3
      vertex 109.44 39.6 3
      vertex 106.84 39.6 3
    endloop
  endfacet
  facet normal 0 0 1
    outer loop
      vertex 104.74 4.7 3
      vertex 106.84 39.6 3
      vertex 104.74 65.3 3
    endloop
  endfacet
  facet normal 0 0 1
    outer loop
      vertex 109.44 2 3
      vertex 107.44 0 3
      vertex 109.004 0.753021 3
    endloop
  endfacet
  facet normal 0 0 1
    outer loop
      vertex 76.11 0 3
      vertex 104.74 4.7 3
      vertex 76.11 2.6 3
    endloop
  endfacet
  facet normal 0 0 1
    outer loop
      vertex 104.74 4.7 3
      vertex 76.11 0 3
      vertex 107.44 0 3
    endloop
  endfacet
  facet normal -0 0 1
    outer loop
      vertex 2 85.5 3
      vertex 33.33 82.9 3
      vertex 33.33 85.5 3
    endloop
  endfacet
  facet normal 0 0 1
    outer loop
      vertex 2.6 39.6 3
      vertex 10.7 65.3 3
      vertex 2.6 45.9 3
    endloop
  endfacet
  facet normal 0 0 1
    outer loop
      vertex 33.33 82.9 3
      vertex 2 85.5 3
      vertex 10.7 65.3 3
    endloop
  endfacet
  facet normal -0 0 1
    outer loop
      vertex 0 83.5 3
      vertex 10.7 65.3 3
      vertex 2 85.5 3
    endloop
  endfacet
  facet normal 0 0 1
    outer loop
      vertex 0 83.5 3
      vertex 2 85.5 3
      vertex 0.43634 84.747 3
    endloop
  endfacet
  facet normal 0 0 1
    outer loop
      vertex 0 45.9 3
      vertex 10.7 65.3 3
      vertex 0 83.5 3
    endloop
  endfacet
  facet normal 0 0 1
    outer loop
      vertex 10.7 65.3 3
      vertex 0 45.9 3
      vertex 2.6 45.9 3
    endloop
  endfacet
  facet normal 0 0 1
    outer loop
      vertex 69.81 0 3
      vertex 39.63 2.6 3
      vertex 39.63 0 3
    endloop
  endfacet
  facet normal -0.330281 -0.943883 0
    outer loop
      vertex 0.753021 0.43634 1.8
      vertex 2 0 3
      vertex 0.753021 0.43634 3
    endloop
  endfacet
  facet normal -0.330281 -0.943883 -0
    outer loop
      vertex 2 0 3
      vertex 0.753021 0.43634 1.8
      vertex 2 0 1.8
    endloop
  endfacet
  facet normal 0 1 -0
    outer loop
      vertex 33.33 85.5 1.8
      vertex 2 85.5 3
      vertex 33.33 85.5 3
    endloop
  endfacet
  facet normal 0 1 0
    outer loop
      vertex 2 85.5 3
      vertex 33.33 85.5 1.8
      vertex 2 85.5 1.8
    endloop
  endfacet
  facet normal 0 1 -0
    outer loop
      vertex 107.44 85.5 1.8
      vertex 76.11 85.5 3
      vertex 107.44 85.5 3
    endloop
  endfacet
  facet normal 0 1 0
    outer loop
      vertex 76.11 85.5 3
      vertex 107.44 85.5 1.8
      vertex 76.11 85.5 1.8
    endloop
  endfacet
  facet normal 0 1 -0
    outer loop
      vertex 69.81 85.5 1.8
      vertex 39.63 85.5 3
      vertex 69.81 85.5 3
    endloop
  endfacet
  facet normal 0 1 0
    outer loop
      vertex 39.63 85.5 3
      vertex 69.81 85.5 1.8
      vertex 39.63 85.5 1.8
    endloop
  endfacet
  facet normal 1 -0 0
    outer loop
      vertex 109.44 45.9 3
      vertex 109.44 83.5 1.8
      vertex 109.44 83.5 3
    endloop
  endfacet
  facet normal 1 0 0
    outer loop
      vertex 109.44 83.5 1.8
      vertex 109.44 45.9 3
      vertex 109.44 45.9 1.8
    endloop
  endfacet
  facet normal 1 -0 0
    outer loop
      vertex 109.44 2 3
      vertex 109.44 39.6 1.8
      vertex 109.44 39.6 3
    endloop
  endfacet
  facet normal 1 0 0
    outer loop
      vertex 109.44 39.6 1.8
      vertex 109.44 2 3
      vertex 109.44 2 1.8
    endloop
  endfacet
  facet normal -1 0 0
    outer loop
      vertex 0 2 1.8
      vertex 0 39.6 3
      vertex 0 39.6 1.8
    endloop
  endfacet
  facet normal -1 -0 0
    outer loop
      vertex 0 39.6 3
      vertex 0 2 1.8
      vertex 0 2 3
    endloop
  endfacet
  facet normal -1 0 0
    outer loop
      vertex 0 45.9 1.8
      vertex 0 83.5 3
      vertex 0 83.5 1.8
    endloop
  endfacet
  facet normal -1 -0 0
    outer loop
      vertex 0 83.5 3
      vertex 0 45.9 1.8
      vertex 0 45.9 3
    endloop
  endfacet
  facet normal -0.943884 0.330276 0
    outer loop
      vertex 0 83.5 1.8
      vertex 0.43634 84.747 3
      vertex 0.43634 84.747 1.8
    endloop
  endfacet
  facet normal -0.943884 0.330276 0
    outer loop
      vertex 0.43634 84.747 3
      vertex 0 83.5 1.8
      vertex 0 83.5 3
    endloop
  endfacet
  facet normal 0 -1 0
    outer loop
      vertex 2 0 1.8
      vertex 33.33 0 3
      vertex 2 0 3
    endloop
  endfacet
  facet normal 0 -1 -0
    outer loop
      vertex 33.33 0 3
      vertex 2 0 1.8
      vertex 33.33 0 1.8
    endloop
  endfacet
  facet normal 0 -1 0
    outer loop
      vertex 76.11 0 1.8
      vertex 107.44 0 3
      vertex 76.11 0 3
    endloop
  endfacet
  facet normal 0 -1 -0
    outer loop
      vertex 107.44 0 3
      vertex 76.11 0 1.8
      vertex 107.44 0 1.8
    endloop
  endfacet
  facet normal 0 -1 0
    outer loop
      vertex 39.63 0 1.8
      vertex 69.81 0 3
      vertex 39.63 0 3
    endloop
  endfacet
  facet normal 0 -1 -0
    outer loop
      vertex 69.81 0 3
      vertex 39.63 0 1.8
      vertex 69.81 0 1.8
    endloop
  endfacet
  facet normal 0.900977 0.433866 0
    outer loop
      vertex 109.44 83.5 3
      vertex 108.687 85.0637 1.8
      vertex 108.687 85.0637 3
    endloop
  endfacet
  facet normal 0.900977 0.433866 0
    outer loop
      vertex 108.687 85.0637 1.8
      vertex 109.44 83.5 3
      vertex 109.44 83.5 1.8
    endloop
  endfacet
  facet normal 0.707107 -0.707107 0
    outer loop
      vertex 107.44 1.5 1.8
      vertex 107.94 2 0
      vertex 107.94 2 1.8
    endloop
  endfacet
  facet normal 0.707107 -0.707107 0
    outer loop
      vertex 107.94 2 0
      vertex 107.44 1.5 1.8
      vertex 107.44 1.5 0
    endloop
  endfacet
  facet normal 0.707107 0.707107 0
    outer loop
      vertex 107.94 83.5 1.8
      vertex 107.44 84 0
      vertex 107.44 84 1.8
    endloop
  endfacet
  facet normal 0.707107 0.707107 0
    outer loop
      vertex 107.44 84 0
      vertex 107.94 83.5 1.8
      vertex 107.94 83.5 0
    endloop
  endfacet
  facet normal -1 0 0
    outer loop
      vertex 1.5 45.9 0
      vertex 1.5 83.5 1.8
      vertex 1.5 83.5 0
    endloop
  endfacet
  facet normal -1 -0 0
    outer loop
      vertex 1.5 83.5 1.8
      vertex 1.5 45.9 0
      vertex 1.5 45.9 1.8
    endloop
  endfacet
  facet normal -1 0 0
    outer loop
      vertex 1.5 2 0
      vertex 1.5 39.6 1.8
      vertex 1.5 39.6 0
    endloop
  endfacet
  facet normal -1 -0 0
    outer loop
      vertex 1.5 39.6 1.8
      vertex 1.5 2 0
      vertex 1.5 2 1.8
    endloop
  endfacet
  facet normal 1 -0 0
    outer loop
      vertex 107.94 45.9 1.8
      vertex 107.94 83.5 0
      vertex 107.94 83.5 1.8
    endloop
  endfacet
  facet normal 1 0 0
    outer loop
      vertex 107.94 83.5 0
      vertex 107.94 45.9 1.8
      vertex 107.94 45.9 0
    endloop
  endfacet
  facet normal 1 -0 0
    outer loop
      vertex 107.94 2 1.8
      vertex 107.94 39.6 0
      vertex 107.94 39.6 1.8
    endloop
  endfacet
  facet normal 1 0 0
    outer loop
      vertex 107.94 39.6 0
      vertex 107.94 2 1.8
      vertex 107.94 2 0
    endloop
  endfacet
  facet normal 0 0 -1
    outer loop
      vertex 69.81 1.5 0
      vertex 39.63 1.5 0
      vertex 69.81 2.6 0
    endloop
  endfacet
  facet normal 0 0 -1
    outer loop
      vertex 104.74 65.3 0
      vertex 69.81 82.9 0
      vertex 76.11 82.9 0
    endloop
  endfacet
  facet normal 0 0 -1
    outer loop
      vertex 69.81 82.9 0
      vertex 39.63 82.9 0
      vertex 69.81 84 0
    endloop
  endfacet
  facet normal 0 0 -1
    outer loop
      vertex 10.7 65.3 0
      vertex 69.81 82.9 0
      vertex 104.74 65.3 0
    endloop
  endfacet
  facet normal -0 0 -1
    outer loop
      vertex 69.81 82.9 0
      vertex 10.7 65.3 0
      vertex 39.63 82.9 0
    endloop
  endfacet
  facet normal -0 0 -1
    outer loop
      vertex 39.63 82.9 0
      vertex 10.7 65.3 0
      vertex 33.33 82.9 0
    endloop
  endfacet
  facet normal 0 0 -1
    outer loop
      vertex 2 84 0
      vertex 33.33 82.9 0
      vertex 10.7 65.3 0
    endloop
  endfacet
  facet normal 0 0 -1
    outer loop
      vertex 2.6 45.9 0
      vertex 10.7 65.3 0
      vertex 2.6 39.6 0
    endloop
  endfacet
  facet normal 0 0 -1
    outer loop
      vertex 33.33 82.9 0
      vertex 2 84 0
      vertex 33.33 84 0
    endloop
  endfacet
  facet normal 0 0 -1
    outer loop
      vertex 1.5 45.9 0
      vertex 10.7 65.3 0
      vertex 2.6 45.9 0
    endloop
  endfacet
  facet normal -0 0 -1
    outer loop
      vertex 10.7 65.3 0
      vertex 1.5 45.9 0
      vertex 1.5 83.5 0
    endloop
  endfacet
  facet normal 0 0 -1
    outer loop
      vertex 10.7 65.3 0
      vertex 1.5 83.5 0
      vertex 2 84 0
    endloop
  endfacet
  facet normal 0 0 -1
    outer loop
      vertex 104.74 4.7 0
      vertex 107.94 2 0
      vertex 107.44 1.5 0
    endloop
  endfacet
  facet normal 0 0 -1
    outer loop
      vertex 107.94 2 0
      vertex 104.74 4.7 0
      vertex 107.94 39.6 0
    endloop
  endfacet
  facet normal 0 0 -1
    outer loop
      vertex 104.74 65.3 0
      vertex 106.84 39.6 0
      vertex 104.74 4.7 0
    endloop
  endfacet
  facet normal -0 0 -1
    outer loop
      vertex 107.94 39.6 0
      vertex 104.74 4.7 0
      vertex 106.84 39.6 0
    endloop
  endfacet
  facet normal 0 0 -1
    outer loop
      vertex 76.11 1.5 0
      vertex 104.74 4.7 0
      vertex 107.44 1.5 0
    endloop
  endfacet
  facet normal 0 0 -1
    outer loop
      vertex 76.11 2.6 0
      vertex 104.74 4.7 0
      vertex 76.11 1.5 0
    endloop
  endfacet
  facet normal 0 0 -1
    outer loop
      vertex 69.81 2.6 0
      vertex 104.74 4.7 0
      vertex 76.11 2.6 0
    endloop
  endfacet
  facet normal 0 0 -1
    outer loop
      vertex 39.63 2.6 0
      vertex 69.81 2.6 0
      vertex 39.63 1.5 0
    endloop
  endfacet
  facet normal 0 0 -1
    outer loop
      vertex 10.7 4.7 0
      vertex 69.81 2.6 0
      vertex 39.63 2.6 0
    endloop
  endfacet
  facet normal 0 0 -1
    outer loop
      vertex 10.7 4.7 0
      vertex 39.63 2.6 0
      vertex 33.33 2.6 0
    endloop
  endfacet
  facet normal 0 0 -1
    outer loop
      vertex 69.81 2.6 0
      vertex 10.7 4.7 0
      vertex 104.74 4.7 0
    endloop
  endfacet
  facet normal 0 0 -1
    outer loop
      vertex 104.74 65.3 0
      vertex 107.94 83.5 0
      vertex 107.94 45.9 0
    endloop
  endfacet
  facet normal 0 0 -1
    outer loop
      vertex 104.74 65.3 0
      vertex 107.94 45.9 0
      vertex 106.84 45.9 0
    endloop
  endfacet
  facet normal 0 0 -1
    outer loop
      vertex 106.84 39.6 0
      vertex 104.74 65.3 0
      vertex 106.84 45.9 0
    endloop
  endfacet
  facet normal -0 0 -1
    outer loop
      vertex 107.94 83.5 0
      vertex 104.74 65.3 0
      vertex 107.44 84 0
    endloop
  endfacet
  facet normal 0 0 -1
    outer loop
      vertex 76.11 82.9 0
      vertex 107.44 84 0
      vertex 104.74 65.3 0
    endloop
  endfacet
  facet normal -0 0 -1
    outer loop
      vertex 107.44 84 0
      vertex 76.11 82.9 0
      vertex 76.11 84 0
    endloop
  endfacet
  facet normal 0 0 -1
    outer loop
      vertex 33.33 1.5 0
      vertex 10.7 4.7 0
      vertex 33.33 2.6 0
    endloop
  endfacet
  facet normal 0 0 -1
    outer loop
      vertex 10.7 4.7 0
      vertex 2.6 39.6 0
      vertex 10.7 65.3 0
    endloop
  endfacet
  facet normal 0 0 -1
    outer loop
      vertex 2 1.5 0
      vertex 10.7 4.7 0
      vertex 33.33 1.5 0
    endloop
  endfacet
  facet normal 0 0 -1
    outer loop
      vertex 1.5 2 0
      vertex 10.7 4.7 0
      vertex 2 1.5 0
    endloop
  endfacet
  facet normal 0 0 -1
    outer loop
      vertex 1.5 39.6 0
      vertex 10.7 4.7 0
      vertex 1.5 2 0
    endloop
  endfacet
  facet normal 0 0 -1
    outer loop
      vertex 10.7 4.7 0
      vertex 1.5 39.6 0
      vertex 2.6 39.6 0
    endloop
  endfacet
  facet normal -0 0 -1
    outer loop
      vertex 69.81 84 0
      vertex 39.63 82.9 0
      vertex 39.63 84 0
    endloop
  endfacet
  facet normal 0 1 -0
    outer loop
      vertex 107.44 84 0
      vertex 76.11 84 1.8
      vertex 107.44 84 1.8
    endloop
  endfacet
  facet normal 0 1 0
    outer loop
      vertex 76.11 84 1.8
      vertex 107.44 84 0
      vertex 76.11 84 0
    endloop
  endfacet
  facet normal 0 1 -0
    outer loop
      vertex 33.33 84 0
      vertex 2 84 1.8
      vertex 33.33 84 1.8
    endloop
  endfacet
  facet normal 0 1 0
    outer loop
      vertex 2 84 1.8
      vertex 33.33 84 0
      vertex 2 84 0
    endloop
  endfacet
  facet normal 0 1 -0
    outer loop
      vertex 69.81 84 0
      vertex 39.63 84 1.8
      vertex 69.81 84 1.8
    endloop
  endfacet
  facet normal 0 1 0
    outer loop
      vertex 39.63 84 1.8
      vertex 69.81 84 0
      vertex 39.63 84 0
    endloop
  endfacet
  facet normal -0.707107 -0.707107 0
    outer loop
      vertex 2 1.5 0
      vertex 1.5 2 1.8
      vertex 1.5 2 0
    endloop
  endfacet
  facet normal -0.707107 -0.707107 0
    outer loop
      vertex 1.5 2 1.8
      vertex 2 1.5 0
      vertex 2 1.5 1.8
    endloop
  endfacet
  facet normal -0.707107 0.707107 0
    outer loop
      vertex 1.5 83.5 0
      vertex 2 84 1.8
      vertex 2 84 0
    endloop
  endfacet
  facet normal -0.707107 0.707107 0
    outer loop
      vertex 2 84 1.8
      vertex 1.5 83.5 0
      vertex 1.5 83.5 1.8
    endloop
  endfacet
  facet normal 0 -1 0
    outer loop
      vertex 76.11 1.5 0
      vertex 107.44 1.5 1.8
      vertex 76.11 1.5 1.8
    endloop
  endfacet
  facet normal 0 -1 -0
    outer loop
      vertex 107.44 1.5 1.8
      vertex 76.11 1.5 0
      vertex 107.44 1.5 0
    endloop
  endfacet
  facet normal 0 -1 0
    outer loop
      vertex 2 1.5 0
      vertex 33.33 1.5 1.8
      vertex 2 1.5 1.8
    endloop
  endfacet
  facet normal 0 -1 -0
    outer loop
      vertex 33.33 1.5 1.8
      vertex 2 1.5 0
      vertex 33.33 1.5 0
    endloop
  endfacet
  facet normal 0 -1 0
    outer loop
      vertex 39.63 1.5 0
      vertex 69.81 1.5 1.8
      vertex 39.63 1.5 1.8
    endloop
  endfacet
  facet normal 0 -1 -0
    outer loop
      vertex 69.81 1.5 1.8
      vertex 39.63 1.5 0
      vertex 69.81 1.5 0
    endloop
  endfacet
  facet normal 1 0 0
    outer loop
      vertex 33.33 2.6 3
      vertex 33.33 1.5 1.8
      vertex 33.33 2.6 0
    endloop
  endfacet
  facet normal 1 -0 0
    outer loop
      vertex 33.33 0 3
      vertex 33.33 1.5 1.8
      vertex 33.33 2.6 3
    endloop
  endfacet
  facet normal 1 0 0
    outer loop
      vertex 33.33 1.5 1.8
      vertex 33.33 0 3
      vertex 33.33 0 1.8
    endloop
  endfacet
  facet normal 1 0 0
    outer loop
      vertex 33.33 2.6 0
      vertex 33.33 1.5 1.8
      vertex 33.33 1.5 0
    endloop
  endfacet
  facet normal -1 0 0
    outer loop
      vertex 39.63 1.5 1.8
      vertex 39.63 2.6 0
      vertex 39.63 1.5 0
    endloop
  endfacet
  facet normal -1 0 0
    outer loop
      vertex 39.63 2.6 0
      vertex 39.63 1.5 1.8
      vertex 39.63 2.6 3
    endloop
  endfacet
  facet normal -1 0 0
    outer loop
      vertex 39.63 0 3
      vertex 39.63 1.5 1.8
      vertex 39.63 0 1.8
    endloop
  endfacet
  facet normal -1 0 0
    outer loop
      vertex 39.63 1.5 1.8
      vertex 39.63 0 3
      vertex 39.63 2.6 3
    endloop
  endfacet
  facet normal 0 -1 0
    outer loop
      vertex 33.33 2.6 0
      vertex 39.63 2.6 3
      vertex 33.33 2.6 3
    endloop
  endfacet
  facet normal 0 -1 -0
    outer loop
      vertex 39.63 2.6 3
      vertex 33.33 2.6 0
      vertex 39.63 2.6 0
    endloop
  endfacet
  facet normal 1 0 0
    outer loop
      vertex 33.33 85.5 3
      vertex 33.33 84 1.8
      vertex 33.33 85.5 1.8
    endloop
  endfacet
  facet normal 1 -0 0
    outer loop
      vertex 33.33 82.9 3
      vertex 33.33 84 1.8
      vertex 33.33 85.5 3
    endloop
  endfacet
  facet normal 1 0 0
    outer loop
      vertex 33.33 82.9 0
      vertex 33.33 84 1.8
      vertex 33.33 82.9 3
    endloop
  endfacet
  facet normal 1 0 0
    outer loop
      vertex 33.33 84 1.8
      vertex 33.33 82.9 0
      vertex 33.33 84 0
    endloop
  endfacet
  facet normal -1 0 0
    outer loop
      vertex 39.63 84 0
      vertex 39.63 82.9 0
      vertex 39.63 84 1.8
    endloop
  endfacet
  facet normal -1 0 0
    outer loop
      vertex 39.63 84 1.8
      vertex 39.63 85.5 3
      vertex 39.63 85.5 1.8
    endloop
  endfacet
  facet normal -1 0 0
    outer loop
      vertex 39.63 84 1.8
      vertex 39.63 82.9 3
      vertex 39.63 85.5 3
    endloop
  endfacet
  facet normal -1 0 0
    outer loop
      vertex 39.63 82.9 3
      vertex 39.63 84 1.8
      vertex 39.63 82.9 0
    endloop
  endfacet
  facet normal 0 1 -0
    outer loop
      vertex 39.63 82.9 0
      vertex 33.33 82.9 3
      vertex 39.63 82.9 3
    endloop
  endfacet
  facet normal 0 1 0
    outer loop
      vertex 33.33 82.9 3
      vertex 39.63 82.9 0
      vertex 33.33 82.9 0
    endloop
  endfacet
  facet normal 1 0 0
    outer loop
      vertex 69.81 2.6 3
      vertex 69.81 1.5 1.8
      vertex 69.81 2.6 0
    endloop
  endfacet
  facet normal 1 -0 0
    outer loop
      vertex 69.81 0 3
      vertex 69.81 1.5 1.8
      vertex 69.81 2.6 3
    endloop
  endfacet
  facet normal 1 0 0
    outer loop
      vertex 69.81 1.5 1.8
      vertex 69.81 0 3
      vertex 69.81 0 1.8
    endloop
  endfacet
  facet normal 1 0 0
    outer loop
      vertex 69.81 2.6 0
      vertex 69.81 1.5 1.8
      vertex 69.81 1.5 0
    endloop
  endfacet
  facet normal -1 0 0
    outer loop
      vertex 76.11 1.5 1.8
      vertex 76.11 2.6 0
      vertex 76.11 1.5 0
    endloop
  endfacet
  facet normal -1 0 0
    outer loop
      vertex 76.11 2.6 0
      vertex 76.11 1.5 1.8
      vertex 76.11 2.6 3
    endloop
  endfacet
  facet normal -1 0 0
    outer loop
      vertex 76.11 0 3
      vertex 76.11 1.5 1.8
      vertex 76.11 0 1.8
    endloop
  endfacet
  facet normal -1 0 0
    outer loop
      vertex 76.11 1.5 1.8
      vertex 76.11 0 3
      vertex 76.11 2.6 3
    endloop
  endfacet
  facet normal 0 -1 0
    outer loop
      vertex 69.81 2.6 0
      vertex 76.11 2.6 3
      vertex 69.81 2.6 3
    endloop
  endfacet
  facet normal 0 -1 -0
    outer loop
      vertex 76.11 2.6 3
      vertex 69.81 2.6 0
      vertex 76.11 2.6 0
    endloop
  endfacet
  facet normal 1 0 0
    outer loop
      vertex 69.81 85.5 3
      vertex 69.81 84 1.8
      vertex 69.81 85.5 1.8
    endloop
  endfacet
  facet normal 1 -0 0
    outer loop
      vertex 69.81 82.9 3
      vertex 69.81 84 1.8
      vertex 69.81 85.5 3
    endloop
  endfacet
  facet normal 1 0 0
    outer loop
      vertex 69.81 82.9 0
      vertex 69.81 84 1.8
      vertex 69.81 82.9 3
    endloop
  endfacet
  facet normal 1 0 0
    outer loop
      vertex 69.81 84 1.8
      vertex 69.81 82.9 0
      vertex 69.81 84 0
    endloop
  endfacet
  facet normal -1 0 0
    outer loop
      vertex 76.11 84 0
      vertex 76.11 82.9 0
      vertex 76.11 84 1.8
    endloop
  endfacet
  facet normal -1 0 0
    outer loop
      vertex 76.11 84 1.8
      vertex 76.11 85.5 3
      vertex 76.11 85.5 1.8
    endloop
  endfacet
  facet normal -1 0 0
    outer loop
      vertex 76.11 84 1.8
      vertex 76.11 82.9 3
      vertex 76.11 85.5 3
    endloop
  endfacet
  facet normal -1 0 0
    outer loop
      vertex 76.11 82.9 3
      vertex 76.11 84 1.8
      vertex 76.11 82.9 0
    endloop
  endfacet
  facet normal 0 1 -0
    outer loop
      vertex 76.11 82.9 0
      vertex 69.81 82.9 3
      vertex 76.11 82.9 3
    endloop
  endfacet
  facet normal 0 1 0
    outer loop
      vertex 69.81 82.9 3
      vertex 76.11 82.9 0
      vertex 69.81 82.9 0
    endloop
  endfacet
  facet normal -1 0 0
    outer loop
      vertex 2.6 39.6 0
      vertex 2.6 45.9 3
      vertex 2.6 45.9 0
    endloop
  endfacet
  facet normal -1 -0 0
    outer loop
      vertex 2.6 45.9 3
      vertex 2.6 39.6 0
      vertex 2.6 39.6 3
    endloop
  endfacet
  facet normal 0 1 0
    outer loop
      vertex 2.6 39.6 3
      vertex 1.5 39.6 1.8
      vertex 0 39.6 3
    endloop
  endfacet
  facet normal 0 1 -0
    outer loop
      vertex 2.6 39.6 0
      vertex 1.5 39.6 1.8
      vertex 2.6 39.6 3
    endloop
  endfacet
  facet normal 0 1 0
    outer loop
      vertex 1.5 39.6 1.8
      vertex 2.6 39.6 0
      vertex 1.5 39.6 0
    endloop
  endfacet
  facet normal 0 1 0
    outer loop
      vertex 0 39.6 3
      vertex 1.5 39.6 1.8
      vertex 0 39.6 1.8
    endloop
  endfacet
  facet normal 0 -1 0
    outer loop
      vertex 1.5 45.9 1.8
      vertex 0 45.9 3
      vertex 0 45.9 1.8
    endloop
  endfacet
  facet normal 0 -1 0
    outer loop
      vertex 0 45.9 3
      vertex 1.5 45.9 1.8
      vertex 2.6 45.9 3
    endloop
  endfacet
  facet normal 0 -1 0
    outer loop
      vertex 2.6 45.9 0
      vertex 1.5 45.9 1.8
      vertex 1.5 45.9 0
    endloop
  endfacet
  facet normal 0 -1 0
    outer loop
      vertex 1.5 45.9 1.8
      vertex 2.6 45.9 0
      vertex 2.6 45.9 3
    endloop
  endfacet
  facet normal 1 -0 0
    outer loop
      vertex 106.84 39.6 3
      vertex 106.84 45.9 0
      vertex 106.84 45.9 3
    endloop
  endfacet
  facet normal 1 0 0
    outer loop
      vertex 106.84 45.9 0
      vertex 106.84 39.6 3
      vertex 106.84 39.6 0
    endloop
  endfacet
  facet normal 0 -1 0
    outer loop
      vertex 106.84 45.9 3
      vertex 107.94 45.9 1.8
      vertex 109.44 45.9 3
    endloop
  endfacet
  facet normal 0 -1 0
    outer loop
      vertex 106.84 45.9 0
      vertex 107.94 45.9 1.8
      vertex 106.84 45.9 3
    endloop
  endfacet
  facet normal 0 -1 -0
    outer loop
      vertex 107.94 45.9 1.8
      vertex 106.84 45.9 0
      vertex 107.94 45.9 0
    endloop
  endfacet
  facet normal 0 -1 -0
    outer loop
      vertex 109.44 45.9 3
      vertex 107.94 45.9 1.8
      vertex 109.44 45.9 1.8
    endloop
  endfacet
  facet normal 0 1 0
    outer loop
      vertex 107.94 39.6 1.8
      vertex 109.44 39.6 3
      vertex 109.44 39.6 1.8
    endloop
  endfacet
  facet normal 0 1 0
    outer loop
      vertex 109.44 39.6 3
      vertex 107.94 39.6 1.8
      vertex 106.84 39.6 3
    endloop
  endfacet
  facet normal 0 1 0
    outer loop
      vertex 106.84 39.6 0
      vertex 107.94 39.6 1.8
      vertex 107.94 39.6 0
    endloop
  endfacet
  facet normal 0 1 0
    outer loop
      vertex 107.94 39.6 1.8
      vertex 106.84 39.6 0
      vertex 106.84 39.6 3
    endloop
  endfacet
  facet normal 1 -0 0
    outer loop
      vertex 10.7 4.7 3
      vertex 10.7 65.3 0
      vertex 10.7 65.3 3
    endloop
  endfacet
  facet normal 1 0 0
    outer loop
      vertex 10.7 65.3 0
      vertex 10.7 4.7 3
      vertex 10.7 4.7 0
    endloop
  endfacet
  facet normal -1 0 0
    outer loop
      vertex 104.74 4.7 0
      vertex 104.74 65.3 3
      vertex 104.74 65.3 0
    endloop
  endfacet
  facet normal -1 -0 0
    outer loop
      vertex 104.74 65.3 3
      vertex 104.74 4.7 0
      vertex 104.74 4.7 3
    endloop
  endfacet
  facet normal 0 1 -0
    outer loop
      vertex 104.74 4.7 0
      vertex 10.7 4.7 3
      vertex 104.74 4.7 3
    endloop
  endfacet
  facet normal 0 1 0
    outer loop
      vertex 10.7 4.7 3
      vertex 104.74 4.7 0
      vertex 10.7 4.7 0
    endloop
  endfacet
  facet normal 0 -1 0
    outer loop
      vertex 10.7 65.3 0
      vertex 104.74 65.3 3
      vertex 10.7 65.3 3
    endloop
  endfacet
  facet normal 0 -1 -0
    outer loop
      vertex 104.74 65.3 3
      vertex 10.7 65.3 0
      vertex 104.74 65.3 0
    endloop
  endfacet
endsolid OpenSCAD_Model
