solid OpenSCAD_Model
  facet normal 0.433808 -0.901005 0
    outer loop
      vertex 101.44 0 1.8
      vertex 103.004 0.753021 3
      vertex 101.44 0 3
    endloop
  endfacet
  facet normal 0.433808 -0.901005 0
    outer loop
      vertex 103.004 0.753021 3
      vertex 101.44 0 1.8
      vertex 103.004 0.753021 1.8
    endloop
  endfacet
  facet normal 0.943963 -0.330052 0
    outer loop
      vertex 103.004 0.753021 3
      vertex 103.44 2 1.8
      vertex 103.44 2 3
    endloop
  endfacet
  facet normal 0.943963 -0.330052 0
    outer loop
      vertex 103.44 2 1.8
      vertex 103.004 0.753021 3
      vertex 103.004 0.753021 1.8
    endloop
  endfacet
  facet normal -0.900968 -0.433885 0
    outer loop
      vertex 0.753021 0.43634 1.8
      vertex 0 2 3
      vertex 0 2 1.8
    endloop
  endfacet
  facet normal -0.900968 -0.433885 0
    outer loop
      vertex 0 2 3
      vertex 0.753021 0.43634 1.8
      vertex 0.753021 0.43634 3
    endloop
  endfacet
  facet normal -0.433875 0.900973 0
    outer loop
      vertex 2 70 1.8
      vertex 0.43634 69.247 3
      vertex 2 70 3
    endloop
  endfacet
  facet normal -0.433875 0.900973 0
    outer loop
      vertex 0.43634 69.247 3
      vertex 2 70 1.8
      vertex 0.43634 69.247 1.8
    endloop
  endfacet
  facet normal 0 0 -1
    outer loop
      vertex 101.94 68 1.8
      vertex 103.44 68 1.8
      vertex 103.44 38.15 1.8
    endloop
  endfacet
  facet normal 0 0 -1
    outer loop
      vertex 101.94 68 1.8
      vertex 103.44 38.15 1.8
      vertex 101.94 38.15 1.8
    endloop
  endfacet
  facet normal 0 0 -1
    outer loop
      vertex 103.44 68 1.8
      vertex 101.94 68 1.8
      vertex 102.687 69.5637 1.8
    endloop
  endfacet
  facet normal 0 0 -1
    outer loop
      vertex 101.44 68.5 1.8
      vertex 102.687 69.5637 1.8
      vertex 101.94 68 1.8
    endloop
  endfacet
  facet normal 0 0 -1
    outer loop
      vertex 101.44 68.5 1.8
      vertex 101.44 70 1.8
      vertex 102.687 69.5637 1.8
    endloop
  endfacet
  facet normal 0 0 -1
    outer loop
      vertex 75.558 68.5 1.8
      vertex 101.44 70 1.8
      vertex 101.44 68.5 1.8
    endloop
  endfacet
  facet normal -0 0 -1
    outer loop
      vertex 101.44 70 1.8
      vertex 75.558 68.5 1.8
      vertex 75.558 70 1.8
    endloop
  endfacet
  facet normal 0 0 -1
    outer loop
      vertex 101.44 1.5 1.8
      vertex 103.004 0.753021 1.8
      vertex 101.44 0 1.8
    endloop
  endfacet
  facet normal 0 0 -1
    outer loop
      vertex 103.004 0.753021 1.8
      vertex 101.44 1.5 1.8
      vertex 101.94 2 1.8
    endloop
  endfacet
  facet normal 0 0 -1
    outer loop
      vertex 75.558 0 1.8
      vertex 101.44 1.5 1.8
      vertex 101.44 0 1.8
    endloop
  endfacet
  facet normal -0 0 -1
    outer loop
      vertex 101.44 1.5 1.8
      vertex 75.558 0 1.8
      vertex 75.558 1.5 1.8
    endloop
  endfacet
  facet normal 0 0 -1
    outer loop
      vertex 101.94 2 1.8
      vertex 103.44 2 1.8
      vertex 103.004 0.753021 1.8
    endloop
  endfacet
  facet normal 0 0 -1
    outer loop
      vertex 103.44 2 1.8
      vertex 101.94 2 1.8
      vertex 103.44 31.85 1.8
    endloop
  endfacet
  facet normal -0 0 -1
    outer loop
      vertex 103.44 31.85 1.8
      vertex 101.94 2 1.8
      vertex 101.94 31.85 1.8
    endloop
  endfacet
  facet normal 0 0 -1
    outer loop
      vertex 2 0 1.8
      vertex 27.882 1.5 1.8
      vertex 27.882 0 1.8
    endloop
  endfacet
  facet normal 0 0 -1
    outer loop
      vertex 2 0 1.8
      vertex 2 1.5 1.8
      vertex 27.882 1.5 1.8
    endloop
  endfacet
  facet normal 0 0 -1
    outer loop
      vertex 0.753021 0.43634 1.8
      vertex 2 1.5 1.8
      vertex 2 0 1.8
    endloop
  endfacet
  facet normal -0 0 -1
    outer loop
      vertex 2 1.5 1.8
      vertex 0.753021 0.43634 1.8
      vertex 1.5 2 1.8
    endloop
  endfacet
  facet normal 0 0 -1
    outer loop
      vertex 0 2 1.8
      vertex 1.5 2 1.8
      vertex 0.753021 0.43634 1.8
    endloop
  endfacet
  facet normal 0 0 -1
    outer loop
      vertex 1.5 2 1.8
      vertex 0 2 1.8
      vertex 1.5 31.85 1.8
    endloop
  endfacet
  facet normal -0 0 -1
    outer loop
      vertex 1.5 31.85 1.8
      vertex 0 2 1.8
      vertex 0 31.85 1.8
    endloop
  endfacet
  facet normal 0 0 -1
    outer loop
      vertex 0 68 1.8
      vertex 1.5 68 1.8
      vertex 1.5 38.15 1.8
    endloop
  endfacet
  facet normal 0 0 -1
    outer loop
      vertex 0 68 1.8
      vertex 1.5 38.15 1.8
      vertex 0 38.15 1.8
    endloop
  endfacet
  facet normal 0 0 -1
    outer loop
      vertex 1.5 68 1.8
      vertex 0 68 1.8
      vertex 0.43634 69.247 1.8
    endloop
  endfacet
  facet normal 0 0 -1
    outer loop
      vertex 2 68.5 1.8
      vertex 27.882 70 1.8
      vertex 27.882 68.5 1.8
    endloop
  endfacet
  facet normal 0 0 -1
    outer loop
      vertex 2 68.5 1.8
      vertex 2 70 1.8
      vertex 27.882 70 1.8
    endloop
  endfacet
  facet normal 0 0 -1
    outer loop
      vertex 0.43634 69.247 1.8
      vertex 2 68.5 1.8
      vertex 1.5 68 1.8
    endloop
  endfacet
  facet normal 0 0 -1
    outer loop
      vertex 2 68.5 1.8
      vertex 0.43634 69.247 1.8
      vertex 2 70 1.8
    endloop
  endfacet
  facet normal 0 0 -1
    outer loop
      vertex 34.182 0 1.8
      vertex 69.258 1.5 1.8
      vertex 69.258 0 1.8
    endloop
  endfacet
  facet normal -0 0 -1
    outer loop
      vertex 69.258 1.5 1.8
      vertex 34.182 0 1.8
      vertex 34.182 1.5 1.8
    endloop
  endfacet
  facet normal 0 0 -1
    outer loop
      vertex 34.182 68.5 1.8
      vertex 69.258 70 1.8
      vertex 69.258 68.5 1.8
    endloop
  endfacet
  facet normal -0 0 -1
    outer loop
      vertex 69.258 70 1.8
      vertex 34.182 68.5 1.8
      vertex 34.182 70 1.8
    endloop
  endfacet
  facet normal 0.330249 0.943894 -0
    outer loop
      vertex 102.687 69.5637 1.8
      vertex 101.44 70 3
      vertex 102.687 69.5637 3
    endloop
  endfacet
  facet normal 0.330249 0.943894 0
    outer loop
      vertex 101.44 70 3
      vertex 102.687 69.5637 1.8
      vertex 101.44 70 1.8
    endloop
  endfacet
  facet normal 0 0 1
    outer loop
      vertex 69.258 70 3
      vertex 34.182 70 3
      vertex 69.258 67.4 3
    endloop
  endfacet
  facet normal 0 0 1
    outer loop
      vertex 98.74 4.7 3
      vertex 69.258 2.6 3
      vertex 75.558 2.6 3
    endloop
  endfacet
  facet normal 0 0 1
    outer loop
      vertex 69.258 2.6 3
      vertex 34.182 2.6 3
      vertex 69.258 0 3
    endloop
  endfacet
  facet normal 0 0 1
    outer loop
      vertex 98.74 4.7 3
      vertex 34.182 2.6 3
      vertex 69.258 2.6 3
    endloop
  endfacet
  facet normal -0 0 1
    outer loop
      vertex 4.7 4.7 3
      vertex 34.182 2.6 3
      vertex 98.74 4.7 3
    endloop
  endfacet
  facet normal 0 0 1
    outer loop
      vertex 34.182 2.6 3
      vertex 4.7 4.7 3
      vertex 27.882 2.6 3
    endloop
  endfacet
  facet normal 0 0 1
    outer loop
      vertex 4.7 4.7 3
      vertex 27.882 0 3
      vertex 27.882 2.6 3
    endloop
  endfacet
  facet normal -0 0 1
    outer loop
      vertex 2.6 31.85 3
      vertex 4.7 4.7 3
      vertex 2.6 38.15 3
    endloop
  endfacet
  facet normal 0 0 1
    outer loop
      vertex 4.7 4.7 3
      vertex 2 0 3
      vertex 27.882 0 3
    endloop
  endfacet
  facet normal -0 0 1
    outer loop
      vertex 0 31.85 3
      vertex 4.7 4.7 3
      vertex 2.6 31.85 3
    endloop
  endfacet
  facet normal 0 0 1
    outer loop
      vertex 4.7 4.7 3
      vertex 0 2 3
      vertex 2 0 3
    endloop
  endfacet
  facet normal 0 0 1
    outer loop
      vertex 4.7 4.7 3
      vertex 0 31.85 3
      vertex 0 2 3
    endloop
  endfacet
  facet normal 0 0 1
    outer loop
      vertex 2 0 3
      vertex 0 2 3
      vertex 0.753021 0.43634 3
    endloop
  endfacet
  facet normal 0 0 1
    outer loop
      vertex 101.44 70 3
      vertex 103.44 68 3
      vertex 102.687 69.5637 3
    endloop
  endfacet
  facet normal 0 0 1
    outer loop
      vertex 103.44 68 3
      vertex 101.44 70 3
      vertex 98.74 65.3 3
    endloop
  endfacet
  facet normal 0 0 1
    outer loop
      vertex 103.44 68 3
      vertex 98.74 65.3 3
      vertex 103.44 38.15 3
    endloop
  endfacet
  facet normal 0 0 1
    outer loop
      vertex 100.84 38.15 3
      vertex 98.74 65.3 3
      vertex 100.84 31.85 3
    endloop
  endfacet
  facet normal 0 0 1
    outer loop
      vertex 103.44 38.15 3
      vertex 98.74 65.3 3
      vertex 100.84 38.15 3
    endloop
  endfacet
  facet normal -0 0 1
    outer loop
      vertex 75.558 70 3
      vertex 98.74 65.3 3
      vertex 101.44 70 3
    endloop
  endfacet
  facet normal -0 0 1
    outer loop
      vertex 75.558 67.4 3
      vertex 98.74 65.3 3
      vertex 75.558 70 3
    endloop
  endfacet
  facet normal -0 0 1
    outer loop
      vertex 69.258 67.4 3
      vertex 98.74 65.3 3
      vertex 75.558 67.4 3
    endloop
  endfacet
  facet normal 0 0 1
    outer loop
      vertex 34.182 67.4 3
      vertex 69.258 67.4 3
      vertex 34.182 70 3
    endloop
  endfacet
  facet normal -0 0 1
    outer loop
      vertex 34.182 67.4 3
      vertex 98.74 65.3 3
      vertex 69.258 67.4 3
    endloop
  endfacet
  facet normal 0 0 1
    outer loop
      vertex 4.7 65.3 3
      vertex 34.182 67.4 3
      vertex 27.882 67.4 3
    endloop
  endfacet
  facet normal 0 0 1
    outer loop
      vertex 34.182 67.4 3
      vertex 4.7 65.3 3
      vertex 98.74 65.3 3
    endloop
  endfacet
  facet normal -0 0 1
    outer loop
      vertex 98.74 4.7 3
      vertex 103.44 2 3
      vertex 103.44 31.85 3
    endloop
  endfacet
  facet normal 0 -0 1
    outer loop
      vertex 101.44 0 3
      vertex 103.44 2 3
      vertex 98.74 4.7 3
    endloop
  endfacet
  facet normal 0 0 1
    outer loop
      vertex 98.74 4.7 3
      vertex 103.44 31.85 3
      vertex 100.84 31.85 3
    endloop
  endfacet
  facet normal 0 0 1
    outer loop
      vertex 98.74 4.7 3
      vertex 100.84 31.85 3
      vertex 98.74 65.3 3
    endloop
  endfacet
  facet normal 0 0 1
    outer loop
      vertex 103.44 2 3
      vertex 101.44 0 3
      vertex 103.004 0.753021 3
    endloop
  endfacet
  facet normal 0 0 1
    outer loop
      vertex 75.558 0 3
      vertex 98.74 4.7 3
      vertex 75.558 2.6 3
    endloop
  endfacet
  facet normal 0 0 1
    outer loop
      vertex 98.74 4.7 3
      vertex 75.558 0 3
      vertex 101.44 0 3
    endloop
  endfacet
  facet normal 0 0 1
    outer loop
      vertex 27.882 70 3
      vertex 4.7 65.3 3
      vertex 27.882 67.4 3
    endloop
  endfacet
  facet normal 0 0 1
    outer loop
      vertex 4.7 65.3 3
      vertex 2.6 38.15 3
      vertex 4.7 4.7 3
    endloop
  endfacet
  facet normal -0 0 1
    outer loop
      vertex 2 70 3
      vertex 4.7 65.3 3
      vertex 27.882 70 3
    endloop
  endfacet
  facet normal -0 0 1
    outer loop
      vertex 0 68 3
      vertex 4.7 65.3 3
      vertex 2 70 3
    endloop
  endfacet
  facet normal 0 0 1
    outer loop
      vertex 0 68 3
      vertex 2 70 3
      vertex 0.43634 69.247 3
    endloop
  endfacet
  facet normal 0 0 1
    outer loop
      vertex 0 38.15 3
      vertex 4.7 65.3 3
      vertex 0 68 3
    endloop
  endfacet
  facet normal 0 0 1
    outer loop
      vertex 4.7 65.3 3
      vertex 0 38.15 3
      vertex 2.6 38.15 3
    endloop
  endfacet
  facet normal 0 0 1
    outer loop
      vertex 69.258 0 3
      vertex 34.182 2.6 3
      vertex 34.182 0 3
    endloop
  endfacet
  facet normal -0.330281 -0.943883 0
    outer loop
      vertex 0.753021 0.43634 1.8
      vertex 2 0 3
      vertex 0.753021 0.43634 3
    endloop
  endfacet
  facet normal -0.330281 -0.943883 -0
    outer loop
      vertex 2 0 3
      vertex 0.753021 0.43634 1.8
      vertex 2 0 1.8
    endloop
  endfacet
  facet normal 0 1 -0
    outer loop
      vertex 27.882 70 1.8
      vertex 2 70 3
      vertex 27.882 70 3
    endloop
  endfacet
  facet normal 0 1 0
    outer loop
      vertex 2 70 3
      vertex 27.882 70 1.8
      vertex 2 70 1.8
    endloop
  endfacet
  facet normal 0 1 -0
    outer loop
      vertex 101.44 70 1.8
      vertex 75.558 70 3
      vertex 101.44 70 3
    endloop
  endfacet
  facet normal 0 1 0
    outer loop
      vertex 75.558 70 3
      vertex 101.44 70 1.8
      vertex 75.558 70 1.8
    endloop
  endfacet
  facet normal 0 1 -0
    outer loop
      vertex 69.258 70 1.8
      vertex 34.182 70 3
      vertex 69.258 70 3
    endloop
  endfacet
  facet normal 0 1 0
    outer loop
      vertex 34.182 70 3
      vertex 69.258 70 1.8
      vertex 34.182 70 1.8
    endloop
  endfacet
  facet normal 1 -0 0
    outer loop
      vertex 103.44 38.15 3
      vertex 103.44 68 1.8
      vertex 103.44 68 3
    endloop
  endfacet
  facet normal 1 0 0
    outer loop
      vertex 103.44 68 1.8
      vertex 103.44 38.15 3
      vertex 103.44 38.15 1.8
    endloop
  endfacet
  facet normal 1 -0 0
    outer loop
      vertex 103.44 2 3
      vertex 103.44 31.85 1.8
      vertex 103.44 31.85 3
    endloop
  endfacet
  facet normal 1 0 0
    outer loop
      vertex 103.44 31.85 1.8
      vertex 103.44 2 3
      vertex 103.44 2 1.8
    endloop
  endfacet
  facet normal -1 0 0
    outer loop
      vertex 0 2 1.8
      vertex 0 31.85 3
      vertex 0 31.85 1.8
    endloop
  endfacet
  facet normal -1 -0 0
    outer loop
      vertex 0 31.85 3
      vertex 0 2 1.8
      vertex 0 2 3
    endloop
  endfacet
  facet normal -1 0 0
    outer loop
      vertex 0 38.15 1.8
      vertex 0 68 3
      vertex 0 68 1.8
    endloop
  endfacet
  facet normal -1 -0 0
    outer loop
      vertex 0 68 3
      vertex 0 38.15 1.8
      vertex 0 38.15 3
    endloop
  endfacet
  facet normal -0.943884 0.330276 0
    outer loop
      vertex 0 68 1.8
      vertex 0.43634 69.247 3
      vertex 0.43634 69.247 1.8
    endloop
  endfacet
  facet normal -0.943884 0.330276 0
    outer loop
      vertex 0.43634 69.247 3
      vertex 0 68 1.8
      vertex 0 68 3
    endloop
  endfacet
  facet normal 0 -1 0
    outer loop
      vertex 2 0 1.8
      vertex 27.882 0 3
      vertex 2 0 3
    endloop
  endfacet
  facet normal 0 -1 -0
    outer loop
      vertex 27.882 0 3
      vertex 2 0 1.8
      vertex 27.882 0 1.8
    endloop
  endfacet
  facet normal 0 -1 0
    outer loop
      vertex 75.558 0 1.8
      vertex 101.44 0 3
      vertex 75.558 0 3
    endloop
  endfacet
  facet normal 0 -1 -0
    outer loop
      vertex 101.44 0 3
      vertex 75.558 0 1.8
      vertex 101.44 0 1.8
    endloop
  endfacet
  facet normal 0 -1 0
    outer loop
      vertex 34.182 0 1.8
      vertex 69.258 0 3
      vertex 34.182 0 3
    endloop
  endfacet
  facet normal 0 -1 -0
    outer loop
      vertex 69.258 0 3
      vertex 34.182 0 1.8
      vertex 69.258 0 1.8
    endloop
  endfacet
  facet normal 0.900977 0.433866 0
    outer loop
      vertex 103.44 68 3
      vertex 102.687 69.5637 1.8
      vertex 102.687 69.5637 3
    endloop
  endfacet
  facet normal 0.900977 0.433866 0
    outer loop
      vertex 102.687 69.5637 1.8
      vertex 103.44 68 3
      vertex 103.44 68 1.8
    endloop
  endfacet
  facet normal 0.707107 -0.707107 0
    outer loop
      vertex 101.44 1.5 1.8
      vertex 101.94 2 0
      vertex 101.94 2 1.8
    endloop
  endfacet
  facet normal 0.707107 -0.707107 0
    outer loop
      vertex 101.94 2 0
      vertex 101.44 1.5 1.8
      vertex 101.44 1.5 0
    endloop
  endfacet
  facet normal 0.707107 0.707107 0
    outer loop
      vertex 101.94 68 1.8
      vertex 101.44 68.5 0
      vertex 101.44 68.5 1.8
    endloop
  endfacet
  facet normal 0.707107 0.707107 0
    outer loop
      vertex 101.44 68.5 0
      vertex 101.94 68 1.8
      vertex 101.94 68 0
    endloop
  endfacet
  facet normal -1 0 0
    outer loop
      vertex 1.5 38.15 0
      vertex 1.5 68 1.8
      vertex 1.5 68 0
    endloop
  endfacet
  facet normal -1 -0 0
    outer loop
      vertex 1.5 68 1.8
      vertex 1.5 38.15 0
      vertex 1.5 38.15 1.8
    endloop
  endfacet
  facet normal -1 0 0
    outer loop
      vertex 1.5 2 0
      vertex 1.5 31.85 1.8
      vertex 1.5 31.85 0
    endloop
  endfacet
  facet normal -1 -0 0
    outer loop
      vertex 1.5 31.85 1.8
      vertex 1.5 2 0
      vertex 1.5 2 1.8
    endloop
  endfacet
  facet normal 1 -0 0
    outer loop
      vertex 101.94 38.15 1.8
      vertex 101.94 68 0
      vertex 101.94 68 1.8
    endloop
  endfacet
  facet normal 1 0 0
    outer loop
      vertex 101.94 68 0
      vertex 101.94 38.15 1.8
      vertex 101.94 38.15 0
    endloop
  endfacet
  facet normal 1 -0 0
    outer loop
      vertex 101.94 2 1.8
      vertex 101.94 31.85 0
      vertex 101.94 31.85 1.8
    endloop
  endfacet
  facet normal 1 0 0
    outer loop
      vertex 101.94 31.85 0
      vertex 101.94 2 1.8
      vertex 101.94 2 0
    endloop
  endfacet
  facet normal 0 0 -1
    outer loop
      vertex 69.258 1.5 0
      vertex 34.182 1.5 0
      vertex 69.258 2.6 0
    endloop
  endfacet
  facet normal 0 0 -1
    outer loop
      vertex 98.74 65.3 0
      vertex 69.258 67.4 0
      vertex 75.558 67.4 0
    endloop
  endfacet
  facet normal 0 0 -1
    outer loop
      vertex 69.258 67.4 0
      vertex 34.182 67.4 0
      vertex 69.258 68.5 0
    endloop
  endfacet
  facet normal 0 0 -1
    outer loop
      vertex 98.74 65.3 0
      vertex 34.182 67.4 0
      vertex 69.258 67.4 0
    endloop
  endfacet
  facet normal 0 0 -1
    outer loop
      vertex 4.7 65.3 0
      vertex 34.182 67.4 0
      vertex 98.74 65.3 0
    endloop
  endfacet
  facet normal -0 0 -1
    outer loop
      vertex 34.182 67.4 0
      vertex 4.7 65.3 0
      vertex 27.882 67.4 0
    endloop
  endfacet
  facet normal 0 0 -1
    outer loop
      vertex 4.7 65.3 0
      vertex 27.882 68.5 0
      vertex 27.882 67.4 0
    endloop
  endfacet
  facet normal 0 0 -1
    outer loop
      vertex 2.6 38.15 0
      vertex 4.7 65.3 0
      vertex 2.6 31.85 0
    endloop
  endfacet
  facet normal 0 0 -1
    outer loop
      vertex 4.7 65.3 0
      vertex 2 68.5 0
      vertex 27.882 68.5 0
    endloop
  endfacet
  facet normal 0 0 -1
    outer loop
      vertex 1.5 38.15 0
      vertex 4.7 65.3 0
      vertex 2.6 38.15 0
    endloop
  endfacet
  facet normal -0 0 -1
    outer loop
      vertex 4.7 65.3 0
      vertex 1.5 38.15 0
      vertex 1.5 68 0
    endloop
  endfacet
  facet normal 0 0 -1
    outer loop
      vertex 4.7 65.3 0
      vertex 1.5 68 0
      vertex 2 68.5 0
    endloop
  endfacet
  facet normal 0 0 -1
    outer loop
      vertex 98.74 4.7 0
      vertex 101.94 2 0
      vertex 101.44 1.5 0
    endloop
  endfacet
  facet normal 0 0 -1
    outer loop
      vertex 101.94 2 0
      vertex 98.74 4.7 0
      vertex 101.94 31.85 0
    endloop
  endfacet
  facet normal -0 0 -1
    outer loop
      vertex 100.84 31.85 0
      vertex 98.74 4.7 0
      vertex 100.84 38.15 0
    endloop
  endfacet
  facet normal -0 0 -1
    outer loop
      vertex 101.94 31.85 0
      vertex 98.74 4.7 0
      vertex 100.84 31.85 0
    endloop
  endfacet
  facet normal 0 0 -1
    outer loop
      vertex 75.558 1.5 0
      vertex 98.74 4.7 0
      vertex 101.44 1.5 0
    endloop
  endfacet
  facet normal 0 0 -1
    outer loop
      vertex 75.558 2.6 0
      vertex 98.74 4.7 0
      vertex 75.558 1.5 0
    endloop
  endfacet
  facet normal 0 0 -1
    outer loop
      vertex 69.258 2.6 0
      vertex 98.74 4.7 0
      vertex 75.558 2.6 0
    endloop
  endfacet
  facet normal 0 0 -1
    outer loop
      vertex 34.182 2.6 0
      vertex 69.258 2.6 0
      vertex 34.182 1.5 0
    endloop
  endfacet
  facet normal 0 0 -1
    outer loop
      vertex 69.258 2.6 0
      vertex 34.182 2.6 0
      vertex 98.74 4.7 0
    endloop
  endfacet
  facet normal 0 0 -1
    outer loop
      vertex 4.7 4.7 0
      vertex 34.182 2.6 0
      vertex 27.882 2.6 0
    endloop
  endfacet
  facet normal 0 0 -1
    outer loop
      vertex 34.182 2.6 0
      vertex 4.7 4.7 0
      vertex 98.74 4.7 0
    endloop
  endfacet
  facet normal 0 0 -1
    outer loop
      vertex 98.74 65.3 0
      vertex 101.94 68 0
      vertex 101.94 38.15 0
    endloop
  endfacet
  facet normal 0 0 -1
    outer loop
      vertex 98.74 65.3 0
      vertex 101.94 38.15 0
      vertex 100.84 38.15 0
    endloop
  endfacet
  facet normal 0 0 -1
    outer loop
      vertex 98.74 65.3 0
      vertex 100.84 38.15 0
      vertex 98.74 4.7 0
    endloop
  endfacet
  facet normal -0 0 -1
    outer loop
      vertex 101.94 68 0
      vertex 98.74 65.3 0
      vertex 101.44 68.5 0
    endloop
  endfacet
  facet normal 0 0 -1
    outer loop
      vertex 75.558 68.5 0
      vertex 98.74 65.3 0
      vertex 75.558 67.4 0
    endloop
  endfacet
  facet normal 0 0 -1
    outer loop
      vertex 98.74 65.3 0
      vertex 75.558 68.5 0
      vertex 101.44 68.5 0
    endloop
  endfacet
  facet normal 0 0 -1
    outer loop
      vertex 27.882 1.5 0
      vertex 4.7 4.7 0
      vertex 27.882 2.6 0
    endloop
  endfacet
  facet normal 0 0 -1
    outer loop
      vertex 4.7 4.7 0
      vertex 2.6 31.85 0
      vertex 4.7 65.3 0
    endloop
  endfacet
  facet normal 0 0 -1
    outer loop
      vertex 2 1.5 0
      vertex 4.7 4.7 0
      vertex 27.882 1.5 0
    endloop
  endfacet
  facet normal 0 0 -1
    outer loop
      vertex 1.5 2 0
      vertex 4.7 4.7 0
      vertex 2 1.5 0
    endloop
  endfacet
  facet normal 0 0 -1
    outer loop
      vertex 1.5 31.85 0
      vertex 4.7 4.7 0
      vertex 1.5 2 0
    endloop
  endfacet
  facet normal 0 0 -1
    outer loop
      vertex 4.7 4.7 0
      vertex 1.5 31.85 0
      vertex 2.6 31.85 0
    endloop
  endfacet
  facet normal -0 0 -1
    outer loop
      vertex 69.258 68.5 0
      vertex 34.182 67.4 0
      vertex 34.182 68.5 0
    endloop
  endfacet
  facet normal 0 1 -0
    outer loop
      vertex 101.44 68.5 0
      vertex 75.558 68.5 1.8
      vertex 101.44 68.5 1.8
    endloop
  endfacet
  facet normal 0 1 0
    outer loop
      vertex 75.558 68.5 1.8
      vertex 101.44 68.5 0
      vertex 75.558 68.5 0
    endloop
  endfacet
  facet normal 0 1 -0
    outer loop
      vertex 27.882 68.5 0
      vertex 2 68.5 1.8
      vertex 27.882 68.5 1.8
    endloop
  endfacet
  facet normal 0 1 0
    outer loop
      vertex 2 68.5 1.8
      vertex 27.882 68.5 0
      vertex 2 68.5 0
    endloop
  endfacet
  facet normal 0 1 -0
    outer loop
      vertex 69.258 68.5 0
      vertex 34.182 68.5 1.8
      vertex 69.258 68.5 1.8
    endloop
  endfacet
  facet normal 0 1 0
    outer loop
      vertex 34.182 68.5 1.8
      vertex 69.258 68.5 0
      vertex 34.182 68.5 0
    endloop
  endfacet
  facet normal -0.707107 -0.707107 0
    outer loop
      vertex 2 1.5 0
      vertex 1.5 2 1.8
      vertex 1.5 2 0
    endloop
  endfacet
  facet normal -0.707107 -0.707107 0
    outer loop
      vertex 1.5 2 1.8
      vertex 2 1.5 0
      vertex 2 1.5 1.8
    endloop
  endfacet
  facet normal -0.707107 0.707107 0
    outer loop
      vertex 1.5 68 0
      vertex 2 68.5 1.8
      vertex 2 68.5 0
    endloop
  endfacet
  facet normal -0.707107 0.707107 0
    outer loop
      vertex 2 68.5 1.8
      vertex 1.5 68 0
      vertex 1.5 68 1.8
    endloop
  endfacet
  facet normal 0 -1 0
    outer loop
      vertex 75.558 1.5 0
      vertex 101.44 1.5 1.8
      vertex 75.558 1.5 1.8
    endloop
  endfacet
  facet normal 0 -1 -0
    outer loop
      vertex 101.44 1.5 1.8
      vertex 75.558 1.5 0
      vertex 101.44 1.5 0
    endloop
  endfacet
  facet normal 0 -1 0
    outer loop
      vertex 2 1.5 0
      vertex 27.882 1.5 1.8
      vertex 2 1.5 1.8
    endloop
  endfacet
  facet normal 0 -1 -0
    outer loop
      vertex 27.882 1.5 1.8
      vertex 2 1.5 0
      vertex 27.882 1.5 0
    endloop
  endfacet
  facet normal 0 -1 0
    outer loop
      vertex 34.182 1.5 0
      vertex 69.258 1.5 1.8
      vertex 34.182 1.5 1.8
    endloop
  endfacet
  facet normal 0 -1 -0
    outer loop
      vertex 69.258 1.5 1.8
      vertex 34.182 1.5 0
      vertex 69.258 1.5 0
    endloop
  endfacet
  facet normal 1 0 0
    outer loop
      vertex 27.882 2.6 3
      vertex 27.882 1.5 1.8
      vertex 27.882 2.6 0
    endloop
  endfacet
  facet normal 1 -0 0
    outer loop
      vertex 27.882 0 3
      vertex 27.882 1.5 1.8
      vertex 27.882 2.6 3
    endloop
  endfacet
  facet normal 1 0 0
    outer loop
      vertex 27.882 1.5 1.8
      vertex 27.882 0 3
      vertex 27.882 0 1.8
    endloop
  endfacet
  facet normal 1 0 0
    outer loop
      vertex 27.882 2.6 0
      vertex 27.882 1.5 1.8
      vertex 27.882 1.5 0
    endloop
  endfacet
  facet normal -1 0 0
    outer loop
      vertex 34.182 1.5 1.8
      vertex 34.182 2.6 0
      vertex 34.182 1.5 0
    endloop
  endfacet
  facet normal -1 0 0
    outer loop
      vertex 34.182 2.6 0
      vertex 34.182 1.5 1.8
      vertex 34.182 2.6 3
    endloop
  endfacet
  facet normal -1 0 0
    outer loop
      vertex 34.182 0 3
      vertex 34.182 1.5 1.8
      vertex 34.182 0 1.8
    endloop
  endfacet
  facet normal -1 0 0
    outer loop
      vertex 34.182 1.5 1.8
      vertex 34.182 0 3
      vertex 34.182 2.6 3
    endloop
  endfacet
  facet normal 0 -1 0
    outer loop
      vertex 27.882 2.6 0
      vertex 34.182 2.6 3
      vertex 27.882 2.6 3
    endloop
  endfacet
  facet normal 0 -1 -0
    outer loop
      vertex 34.182 2.6 3
      vertex 27.882 2.6 0
      vertex 34.182 2.6 0
    endloop
  endfacet
  facet normal 1 0 0
    outer loop
      vertex 27.882 70 3
      vertex 27.882 68.5 1.8
      vertex 27.882 70 1.8
    endloop
  endfacet
  facet normal 1 -0 0
    outer loop
      vertex 27.882 67.4 3
      vertex 27.882 68.5 1.8
      vertex 27.882 70 3
    endloop
  endfacet
  facet normal 1 0 0
    outer loop
      vertex 27.882 67.4 0
      vertex 27.882 68.5 1.8
      vertex 27.882 67.4 3
    endloop
  endfacet
  facet normal 1 0 0
    outer loop
      vertex 27.882 68.5 1.8
      vertex 27.882 67.4 0
      vertex 27.882 68.5 0
    endloop
  endfacet
  facet normal -1 0 0
    outer loop
      vertex 34.182 68.5 0
      vertex 34.182 67.4 0
      vertex 34.182 68.5 1.8
    endloop
  endfacet
  facet normal -1 0 0
    outer loop
      vertex 34.182 68.5 1.8
      vertex 34.182 70 3
      vertex 34.182 70 1.8
    endloop
  endfacet
  facet normal -1 0 0
    outer loop
      vertex 34.182 68.5 1.8
      vertex 34.182 67.4 3
      vertex 34.182 70 3
    endloop
  endfacet
  facet normal -1 0 0
    outer loop
      vertex 34.182 67.4 3
      vertex 34.182 68.5 1.8
      vertex 34.182 67.4 0
    endloop
  endfacet
  facet normal 0 1 -0
    outer loop
      vertex 34.182 67.4 0
      vertex 27.882 67.4 3
      vertex 34.182 67.4 3
    endloop
  endfacet
  facet normal 0 1 0
    outer loop
      vertex 27.882 67.4 3
      vertex 34.182 67.4 0
      vertex 27.882 67.4 0
    endloop
  endfacet
  facet normal 1 0 0
    outer loop
      vertex 69.258 2.6 3
      vertex 69.258 1.5 1.8
      vertex 69.258 2.6 0
    endloop
  endfacet
  facet normal 1 -0 0
    outer loop
      vertex 69.258 0 3
      vertex 69.258 1.5 1.8
      vertex 69.258 2.6 3
    endloop
  endfacet
  facet normal 1 0 0
    outer loop
      vertex 69.258 1.5 1.8
      vertex 69.258 0 3
      vertex 69.258 0 1.8
    endloop
  endfacet
  facet normal 1 0 0
    outer loop
      vertex 69.258 2.6 0
      vertex 69.258 1.5 1.8
      vertex 69.258 1.5 0
    endloop
  endfacet
  facet normal -1 0 0
    outer loop
      vertex 75.558 1.5 1.8
      vertex 75.558 2.6 0
      vertex 75.558 1.5 0
    endloop
  endfacet
  facet normal -1 0 0
    outer loop
      vertex 75.558 2.6 0
      vertex 75.558 1.5 1.8
      vertex 75.558 2.6 3
    endloop
  endfacet
  facet normal -1 0 0
    outer loop
      vertex 75.558 0 3
      vertex 75.558 1.5 1.8
      vertex 75.558 0 1.8
    endloop
  endfacet
  facet normal -1 0 0
    outer loop
      vertex 75.558 1.5 1.8
      vertex 75.558 0 3
      vertex 75.558 2.6 3
    endloop
  endfacet
  facet normal 0 -1 0
    outer loop
      vertex 69.258 2.6 0
      vertex 75.558 2.6 3
      vertex 69.258 2.6 3
    endloop
  endfacet
  facet normal 0 -1 -0
    outer loop
      vertex 75.558 2.6 3
      vertex 69.258 2.6 0
      vertex 75.558 2.6 0
    endloop
  endfacet
  facet normal 1 0 0
    outer loop
      vertex 69.258 70 3
      vertex 69.258 68.5 1.8
      vertex 69.258 70 1.8
    endloop
  endfacet
  facet normal 1 -0 0
    outer loop
      vertex 69.258 67.4 3
      vertex 69.258 68.5 1.8
      vertex 69.258 70 3
    endloop
  endfacet
  facet normal 1 0 0
    outer loop
      vertex 69.258 67.4 0
      vertex 69.258 68.5 1.8
      vertex 69.258 67.4 3
    endloop
  endfacet
  facet normal 1 0 0
    outer loop
      vertex 69.258 68.5 1.8
      vertex 69.258 67.4 0
      vertex 69.258 68.5 0
    endloop
  endfacet
  facet normal -1 0 0
    outer loop
      vertex 75.558 68.5 0
      vertex 75.558 67.4 0
      vertex 75.558 68.5 1.8
    endloop
  endfacet
  facet normal -1 0 0
    outer loop
      vertex 75.558 68.5 1.8
      vertex 75.558 70 3
      vertex 75.558 70 1.8
    endloop
  endfacet
  facet normal -1 0 0
    outer loop
      vertex 75.558 68.5 1.8
      vertex 75.558 67.4 3
      vertex 75.558 70 3
    endloop
  endfacet
  facet normal -1 0 0
    outer loop
      vertex 75.558 67.4 3
      vertex 75.558 68.5 1.8
      vertex 75.558 67.4 0
    endloop
  endfacet
  facet normal 0 1 -0
    outer loop
      vertex 75.558 67.4 0
      vertex 69.258 67.4 3
      vertex 75.558 67.4 3
    endloop
  endfacet
  facet normal 0 1 0
    outer loop
      vertex 69.258 67.4 3
      vertex 75.558 67.4 0
      vertex 69.258 67.4 0
    endloop
  endfacet
  facet normal -1 0 0
    outer loop
      vertex 2.6 31.85 0
      vertex 2.6 38.15 3
      vertex 2.6 38.15 0
    endloop
  endfacet
  facet normal -1 -0 0
    outer loop
      vertex 2.6 38.15 3
      vertex 2.6 31.85 0
      vertex 2.6 31.85 3
    endloop
  endfacet
  facet normal 0 1 0
    outer loop
      vertex 2.6 31.85 3
      vertex 1.5 31.85 1.8
      vertex 0 31.85 3
    endloop
  endfacet
  facet normal 0 1 -0
    outer loop
      vertex 2.6 31.85 0
      vertex 1.5 31.85 1.8
      vertex 2.6 31.85 3
    endloop
  endfacet
  facet normal 0 1 0
    outer loop
      vertex 1.5 31.85 1.8
      vertex 2.6 31.85 0
      vertex 1.5 31.85 0
    endloop
  endfacet
  facet normal 0 1 0
    outer loop
      vertex 0 31.85 3
      vertex 1.5 31.85 1.8
      vertex 0 31.85 1.8
    endloop
  endfacet
  facet normal 0 -1 0
    outer loop
      vertex 1.5 38.15 1.8
      vertex 0 38.15 3
      vertex 0 38.15 1.8
    endloop
  endfacet
  facet normal 0 -1 0
    outer loop
      vertex 0 38.15 3
      vertex 1.5 38.15 1.8
      vertex 2.6 38.15 3
    endloop
  endfacet
  facet normal 0 -1 0
    outer loop
      vertex 2.6 38.15 0
      vertex 1.5 38.15 1.8
      vertex 1.5 38.15 0
    endloop
  endfacet
  facet normal 0 -1 0
    outer loop
      vertex 1.5 38.15 1.8
      vertex 2.6 38.15 0
      vertex 2.6 38.15 3
    endloop
  endfacet
  facet normal 1 -0 0
    outer loop
      vertex 100.84 31.85 3
      vertex 100.84 38.15 0
      vertex 100.84 38.15 3
    endloop
  endfacet
  facet normal 1 0 0
    outer loop
      vertex 100.84 38.15 0
      vertex 100.84 31.85 3
      vertex 100.84 31.85 0
    endloop
  endfacet
  facet normal 0 -1 0
    outer loop
      vertex 100.84 38.15 3
      vertex 101.94 38.15 1.8
      vertex 103.44 38.15 3
    endloop
  endfacet
  facet normal 0 -1 0
    outer loop
      vertex 100.84 38.15 0
      vertex 101.94 38.15 1.8
      vertex 100.84 38.15 3
    endloop
  endfacet
  facet normal 0 -1 -0
    outer loop
      vertex 101.94 38.15 1.8
      vertex 100.84 38.15 0
      vertex 101.94 38.15 0
    endloop
  endfacet
  facet normal 0 -1 -0
    outer loop
      vertex 103.44 38.15 3
      vertex 101.94 38.15 1.8
      vertex 103.44 38.15 1.8
    endloop
  endfacet
  facet normal 0 1 0
    outer loop
      vertex 101.94 31.85 1.8
      vertex 103.44 31.85 3
      vertex 103.44 31.85 1.8
    endloop
  endfacet
  facet normal 0 1 0
    outer loop
      vertex 103.44 31.85 3
      vertex 101.94 31.85 1.8
      vertex 100.84 31.85 3
    endloop
  endfacet
  facet normal 0 1 0
    outer loop
      vertex 100.84 31.85 0
      vertex 101.94 31.85 1.8
      vertex 101.94 31.85 0
    endloop
  endfacet
  facet normal 0 1 0
    outer loop
      vertex 101.94 31.85 1.8
      vertex 100.84 31.85 0
      vertex 100.84 31.85 3
    endloop
  endfacet
  facet normal 1 -0 0
    outer loop
      vertex 4.7 4.7 3
      vertex 4.7 65.3 0
      vertex 4.7 65.3 3
    endloop
  endfacet
  facet normal 1 0 0
    outer loop
      vertex 4.7 65.3 0
      vertex 4.7 4.7 3
      vertex 4.7 4.7 0
    endloop
  endfacet
  facet normal -1 0 0
    outer loop
      vertex 98.74 4.7 0
      vertex 98.74 65.3 3
      vertex 98.74 65.3 0
    endloop
  endfacet
  facet normal -1 -0 0
    outer loop
      vertex 98.74 65.3 3
      vertex 98.74 4.7 0
      vertex 98.74 4.7 3
    endloop
  endfacet
  facet normal 0 1 -0
    outer loop
      vertex 98.74 4.7 0
      vertex 4.7 4.7 3
      vertex 98.74 4.7 3
    endloop
  endfacet
  facet normal 0 1 0
    outer loop
      vertex 4.7 4.7 3
      vertex 98.74 4.7 0
      vertex 4.7 4.7 0
    endloop
  endfacet
  facet normal 0 -1 0
    outer loop
      vertex 4.7 65.3 0
      vertex 98.74 65.3 3
      vertex 4.7 65.3 3
    endloop
  endfacet
  facet normal 0 -1 -0
    outer loop
      vertex 98.74 65.3 3
      vertex 4.7 65.3 0
      vertex 98.74 65.3 0
    endloop
  endfacet
endsolid OpenSCAD_Model
